<svg width="180" height="52" viewBox="0 0 180 52" fill="none" xmlns="http://www.w3.org/2000/svg">
<path d="M17.9503 25.8695L10.2693 33.4877C9.7306 34.0217 9.30276 34.6583 9.01068 35.3603C8.7186 36.0623 8.56812 36.8159 8.56799 37.577V47.0366C8.56799 47.9501 8.9284 48.8261 9.56994 49.4719C10.2115 50.1178 11.0816 50.4807 11.9889 50.4807H12.4085C13.3158 50.4807 14.1859 50.1178 14.8274 49.4719C15.4689 48.8261 15.8294 47.9501 15.8294 47.0366V38.2497C15.8294 37.4581 16.1417 36.6989 16.6977 36.1391C17.2537 35.5793 18.0078 35.2649 18.7941 35.2649C19.624 35.2649 20.4198 35.5968 21.0066 36.1875C21.5934 36.7783 21.9231 37.5796 21.9231 38.415V47.0573C21.9231 47.9707 22.2835 48.8467 22.925 49.4926C23.5665 50.1385 24.4367 50.5014 25.3439 50.5014C26.0697 50.5014 26.7658 50.2111 27.2791 49.6944C27.7923 49.1777 28.0806 48.4768 28.0806 47.7461L28.0464 36.5851C28.0436 35.223 27.5584 33.9066 26.6781 32.8724C25.1501 31.0746 22.6642 28.1311 20.9766 26.044C20.7967 25.8212 20.5725 25.6387 20.3186 25.508C20.0646 25.3773 19.7864 25.3013 19.5017 25.2849C19.2169 25.2685 18.9319 25.312 18.6648 25.4126C18.3977 25.5133 18.1543 25.6689 17.9503 25.8695Z" fill="#0E536C"/>
<mask id="mask0_5_17355" style="mask-type:luminance" maskUnits="userSpaceOnUse" x="8" y="25" width="21" height="26">
<path d="M17.9503 25.8695L10.2693 33.4877C9.7306 34.0217 9.30276 34.6583 9.01068 35.3603C8.7186 36.0623 8.56812 36.8159 8.56799 37.577V47.0366C8.56799 47.9501 8.9284 48.8261 9.56994 49.4719C10.2115 50.1178 11.0816 50.4807 11.9889 50.4807H12.4085C13.3158 50.4807 14.1859 50.1178 14.8274 49.4719C15.4689 48.8261 15.8294 47.9501 15.8294 47.0366V38.2497C15.8294 37.4581 16.1417 36.6989 16.6977 36.1391C17.2537 35.5793 18.0078 35.2649 18.7941 35.2649C19.624 35.2649 20.4198 35.5968 21.0066 36.1875C21.5934 36.7783 21.9231 37.5796 21.9231 38.415V47.0573C21.9231 47.9707 22.2835 48.8467 22.925 49.4926C23.5665 50.1385 24.4367 50.5014 25.3439 50.5014C26.0697 50.5014 26.7658 50.2111 27.2791 49.6944C27.7923 49.1777 28.0806 48.4768 28.0806 47.7461L28.0464 36.5851C28.0436 35.223 27.5584 33.9066 26.6781 32.8724C25.1501 31.0746 22.6642 28.1311 20.9766 26.044C20.7967 25.8212 20.5725 25.6387 20.3186 25.508C20.0646 25.3773 19.7864 25.3013 19.5017 25.2849C19.2169 25.2685 18.9319 25.312 18.6648 25.4126C18.3977 25.5133 18.1543 25.6689 17.9503 25.8695Z" fill="white"/>
</mask>
<g mask="url(#mask0_5_17355)">
<path d="M13.0739 52.0722C19.8716 52.0722 25.3822 46.5243 25.3822 39.6805C25.3822 32.8368 19.8716 27.2888 13.0739 27.2888C6.27623 27.2888 0.765625 32.8368 0.765625 39.6805C0.765625 46.5243 6.27623 52.0722 13.0739 52.0722Z" fill="#9FC53D"/>
</g>
<path d="M39.6318 25.872L47.3151 33.4902C47.8534 34.0244 48.2808 34.6611 48.5725 35.3631C48.8642 36.0651 49.0143 36.8185 49.0141 37.5795V47.0391C49.0141 47.9526 48.6537 48.8286 48.0122 49.4745C47.3707 50.1203 46.5005 50.4832 45.5933 50.4832H45.1691C44.2618 50.4832 43.3917 50.1203 42.7502 49.4745C42.1086 48.8286 41.7482 47.9526 41.7482 47.0391V38.2522C41.7482 37.4606 41.4359 36.7014 40.8799 36.1416C40.3239 35.5818 39.5698 35.2674 38.7835 35.2674C37.9536 35.2674 37.1578 35.5993 36.571 36.19C35.9842 36.7808 35.6545 37.5821 35.6545 38.4175V47.0598C35.6545 47.9732 35.2941 48.8492 34.6526 49.4951C34.011 50.141 33.1409 50.5039 32.2336 50.5039C31.5078 50.5039 30.8117 50.2136 30.2985 49.6969C29.7853 49.1802 29.4969 48.4793 29.4969 47.7486L29.5312 36.5876C29.5354 35.2258 30.0204 33.9099 30.8995 32.8749C32.4298 31.0771 34.9133 28.1336 36.601 26.0465C36.7809 25.823 37.0053 25.6398 37.2597 25.5087C37.514 25.3775 37.7928 25.3013 38.0781 25.2849C38.3634 25.2684 38.649 25.3122 38.9165 25.4133C39.1841 25.5144 39.4277 25.6706 39.6318 25.872Z" fill="#7DAF42"/>
<mask id="mask1_5_17355" style="mask-type:luminance" maskUnits="userSpaceOnUse" x="29" y="25" width="21" height="26">
<path d="M39.6315 25.8722L47.3147 33.4905C47.853 34.0247 48.2805 34.6613 48.5721 35.3633C48.8638 36.0654 49.0139 36.8188 49.0138 37.5797V47.0394C49.0138 47.9528 48.6534 48.8288 48.0118 49.4747C47.3703 50.1206 46.5002 50.4834 45.5929 50.4834H45.1687C44.2614 50.4834 43.3913 50.1206 42.7498 49.4747C42.1083 48.8288 41.7478 47.9528 41.7478 47.0394V38.2525C41.7478 37.4608 41.4355 36.7016 40.8795 36.1419C40.3235 35.5821 39.5694 35.2676 38.7831 35.2676C37.9532 35.2676 37.1574 35.5995 36.5706 36.1903C35.9838 36.781 35.6541 37.5823 35.6541 38.4178V47.06C35.6541 47.9735 35.2937 48.8495 34.6522 49.4954C34.0107 50.1412 33.1405 50.5041 32.2333 50.5041C31.5075 50.5041 30.8114 50.2138 30.2981 49.6971C29.7849 49.1804 29.4966 48.4796 29.4966 47.7489L29.5308 36.5878C29.535 35.226 30.02 33.9101 30.8991 32.8752C32.4294 31.0774 34.913 28.1338 36.6006 26.0467C36.7806 25.8233 37.0049 25.6401 37.2593 25.5089C37.5136 25.3778 37.7924 25.3015 38.0777 25.2851C38.363 25.2687 38.6486 25.3124 38.9162 25.4135C39.1837 25.5146 39.4274 25.6709 39.6315 25.8722Z" fill="white"/>
</mask>
<g mask="url(#mask1_5_17355)">
<path d="M44.5074 52.0725C51.3051 52.0725 56.8157 46.5245 56.8157 39.6808C56.8157 32.837 51.3051 27.2891 44.5074 27.2891C37.7097 27.2891 32.1991 32.837 32.1991 39.6808C32.1991 46.5245 37.7097 52.0725 44.5074 52.0725Z" fill="#9FC53D"/>
</g>
<path d="M26.1684 16.3187L22.4675 20.0447C21.0647 21.457 21.0647 23.7466 22.4675 25.1589L26.1684 28.8849C27.5712 30.2971 29.8454 30.2971 31.2482 28.8849L34.9491 25.1589C36.3518 23.7466 36.3518 21.457 34.9491 20.0447L31.2482 16.3187C29.8454 14.9065 27.5712 14.9065 26.1684 16.3187Z" fill="#10969F"/>
<mask id="mask2_5_17355" style="mask-type:luminance" maskUnits="userSpaceOnUse" x="21" y="15" width="16" height="15">
<path d="M26.1684 16.3148L22.4675 20.0408C21.0647 21.4531 21.0647 23.7427 22.4675 25.155L26.1684 28.881C27.5712 30.2932 29.8454 30.2932 31.2482 28.881L34.9491 25.155C36.3518 23.7427 36.3518 21.4531 34.9491 20.0408L31.2482 16.3148C29.8454 14.9026 27.5712 14.9026 26.1684 16.3148Z" fill="white"/>
</mask>
<g mask="url(#mask2_5_17355)">
<path d="M33.2807 27.5004C38.4964 27.5004 42.7245 23.2436 42.7245 17.9925C42.7245 12.7414 38.4964 8.48462 33.2807 8.48462C28.065 8.48462 23.8368 12.7414 23.8368 17.9925C23.8368 23.2436 28.065 27.5004 33.2807 27.5004Z" fill="#12AFB8"/>
</g>
<path d="M28.9539 12.1267C31.9906 12.1267 34.4524 9.64822 34.4524 6.59091C34.4524 3.53361 31.9906 1.05518 28.9539 1.05518C25.9172 1.05518 23.4554 3.53361 23.4554 6.59091C23.4554 9.64822 25.9172 12.1267 28.9539 12.1267Z" fill="#7CAD42"/>
<mask id="mask3_5_17355" style="mask-type:luminance" maskUnits="userSpaceOnUse" x="23" y="1" width="12" height="12">
<path d="M28.9543 12.1271C31.991 12.1271 34.4528 9.64871 34.4528 6.5914C34.4528 3.5341 31.991 1.05566 28.9543 1.05566C25.9176 1.05566 23.4558 3.5341 23.4558 6.5914C23.4558 9.64871 25.9176 12.1271 28.9543 12.1271Z" fill="white"/>
</mask>
<g mask="url(#mask3_5_17355)">
<path d="M33.7842 13.5088C37.5792 13.5088 40.6556 10.4115 40.6556 6.5908C40.6556 2.77012 37.5792 -0.327148 33.7842 -0.327148C29.9893 -0.327148 26.9128 2.77012 26.9128 6.5908C26.9128 10.4115 29.9893 13.5088 33.7842 13.5088Z" fill="#9FC43C"/>
</g>
<path d="M45.5018 24.6616C48.5385 24.6616 51.0002 22.1831 51.0002 19.1258C51.0002 16.0685 48.5385 13.5901 45.5018 13.5901C42.465 13.5901 40.0033 16.0685 40.0033 19.1258C40.0033 22.1831 42.465 24.6616 45.5018 24.6616Z" fill="#9FC43C"/>
<mask id="mask4_5_17355" style="mask-type:luminance" maskUnits="userSpaceOnUse" x="40" y="13" width="12" height="12">
<path d="M45.502 24.6621C48.5387 24.6621 51.0005 22.1836 51.0005 19.1263C51.0005 16.069 48.5387 13.5906 45.502 13.5906C42.4653 13.5906 40.0035 16.069 40.0035 19.1263C40.0035 22.1836 42.4653 24.6621 45.502 24.6621Z" fill="white"/>
</mask>
<g mask="url(#mask4_5_17355)">
<path d="M38.5799 27.5549C42.3748 27.5549 45.4513 24.4576 45.4513 20.6369C45.4513 16.8163 42.3748 13.719 38.5799 13.719C34.7849 13.719 31.7085 16.8163 31.7085 20.6369C31.7085 24.4576 34.7849 27.5549 38.5799 27.5549Z" fill="#7CAD42"/>
</g>
<path d="M11.2933 24.6616C14.33 24.6616 16.7917 22.1831 16.7917 19.1258C16.7917 16.0685 14.33 13.5901 11.2933 13.5901C8.25655 13.5901 5.7948 16.0685 5.7948 19.1258C5.7948 22.1831 8.25655 24.6616 11.2933 24.6616Z" fill="#19B0BB"/>
<mask id="mask5_5_17355" style="mask-type:luminance" maskUnits="userSpaceOnUse" x="5" y="13" width="12" height="12">
<path d="M11.2936 24.6621C14.3304 24.6621 16.7921 22.1836 16.7921 19.1263C16.7921 16.069 14.3304 13.5906 11.2936 13.5906C8.25692 13.5906 5.79517 16.069 5.79517 19.1263C5.79517 22.1836 8.25692 24.6621 11.2936 24.6621Z" fill="white"/>
</mask>
<g mask="url(#mask5_5_17355)">
<path d="M18.2124 27.5549C22.0074 27.5549 25.0838 24.4576 25.0838 20.6369C25.0838 16.8163 22.0074 13.719 18.2124 13.719C14.4175 13.719 11.3411 16.8163 11.3411 20.6369C11.3411 24.4576 14.4175 27.5549 18.2124 27.5549Z" fill="#10969F"/>
</g>
<path d="M64.2739 25.7879C64.5357 26.0723 64.8187 26.3361 65.1205 26.577C65.3709 26.7715 65.6432 26.9357 65.9317 27.0663C66.1979 27.1867 66.4786 27.2716 66.7665 27.3188C67.0767 27.3646 67.3898 27.387 67.7032 27.3859H68.0011C68.1108 27.3859 68.2206 27.3622 68.3342 27.3425L68.6556 27.2754C68.7575 27.2478 68.8516 27.2162 68.9378 27.1847V29.5324C68.6872 29.5972 68.4334 29.6486 68.1775 29.6863C67.7881 29.743 67.3951 29.7693 67.0017 29.7652C66.4745 29.7698 65.9509 29.6761 65.4575 29.489C64.9731 29.2994 64.5158 29.046 64.0975 28.7354C63.6461 28.3971 63.2239 28.0209 62.8356 27.6108C62.428 27.1768 62.0047 26.7138 61.5657 26.2219C60.7744 26.2093 59.9945 26.0291 59.2769 25.6932C58.6071 25.3776 58.0083 24.9279 57.5172 24.3713C57.019 23.7931 56.637 23.1231 56.3923 22.3984C56.1241 21.6251 55.9915 20.8106 56.0004 19.9915C56.0004 18.0291 56.5609 16.4508 57.6818 15.2565C58.8027 14.0623 60.3024 13.4573 62.181 13.4415C62.9693 13.4114 63.7548 13.5515 64.4849 13.8523C65.215 14.1531 65.8726 14.6077 66.4138 15.1855C67.5034 16.3377 68.0468 17.8595 68.0442 19.7508C68.0802 21.0922 67.7348 22.416 67.0487 23.5664C66.4017 24.6031 65.4229 25.3867 64.2739 25.7879ZM62.0791 15.8366C61.6336 15.8217 61.1909 15.9141 60.788 16.1063C60.3851 16.2985 60.0336 16.5848 59.7629 16.9414C59.2077 17.8083 58.9124 18.8179 58.9124 19.8494C58.9124 20.8809 59.2077 21.8906 59.7629 22.7575C60.028 23.1021 60.3705 23.3787 60.7621 23.5645C61.1538 23.7504 61.5836 23.8403 62.0164 23.8268C62.4492 23.8451 62.8802 23.7611 63.2749 23.5816C63.6696 23.402 64.0171 23.132 64.2896 22.793C64.8911 21.9547 65.1873 20.9332 65.1283 19.9007C65.1283 18.6263 64.8618 17.6359 64.3249 16.9217C64.0672 16.5705 63.7275 16.2887 63.3357 16.1015C62.9439 15.9143 62.5123 15.8273 62.0791 15.8484V15.8366Z" fill="#0E536C"/>
<path d="M78.1522 26.03H75.4636V24.6805H75.4205C75.1535 25.1607 74.7637 25.5603 74.2917 25.8378C73.8196 26.1153 73.2824 26.2607 72.7358 26.2588C70.703 26.2588 69.6866 25.0199 69.6866 22.5419V17.1914H72.387V22.2815C72.387 23.531 72.8782 24.1557 73.8606 24.1557C74.0824 24.1657 74.3036 24.1247 74.5073 24.0359C74.711 23.947 74.892 23.8126 75.0364 23.6428C75.3444 23.2413 75.4963 22.7404 75.4636 22.2341V17.1914H78.1639L78.1522 26.03Z" fill="#0E536C"/>
<path d="M88.3189 22.3836H82.5929C82.683 23.6699 83.4865 24.3092 85.0032 24.3092C85.8992 24.329 86.7821 24.0893 87.5468 23.6186V25.5915C86.5618 26.0677 85.4756 26.2926 84.384 26.2465C82.9678 26.2465 81.8678 25.852 81.084 25.0628C80.3001 24.2737 79.9082 23.1701 79.9082 21.7523C79.9082 20.2845 80.3315 19.1218 81.178 18.2642C81.5844 17.8439 82.0727 17.5127 82.6123 17.2914C83.1518 17.07 83.731 16.9633 84.3134 16.9779C85.5937 16.9779 86.584 17.3606 87.2842 18.1261C88.0203 18.99 88.3966 20.1068 88.3345 21.2433L88.3189 22.3836ZM85.8066 20.7106C85.8066 19.4453 85.2984 18.8127 84.2821 18.8127C84.0656 18.8134 83.8519 18.8626 83.6567 18.9568C83.4615 19.051 83.2895 19.1878 83.1533 19.3572C82.8278 19.7381 82.6266 20.2106 82.5772 20.7106H85.8066Z" fill="#0E536C"/>
<path d="M100.217 20.6561C100.217 24.3731 98.4967 26.2315 95.0556 26.2315C91.7217 26.2315 90.0534 24.4165 90.0508 20.7863V13.6523H92.8295V20.8337C92.8295 22.8355 93.6134 23.8364 95.1811 23.8364C96.7487 23.8364 97.5117 22.8697 97.4699 20.9363V13.6523H100.237L100.217 20.6561Z" fill="#7DAF42"/>
<path d="M111.105 26.0298H108.404V21.1173C108.404 19.7468 107.918 19.0615 106.946 19.0615C106.722 19.0535 106.498 19.0986 106.294 19.1931C106.09 19.2877 105.911 19.4291 105.77 19.606C105.457 19.9954 105.295 20.4864 105.316 20.9871V26.0298H102.608V17.1912H105.316V18.588H105.351C105.627 18.0831 106.036 17.665 106.534 17.3801C107.031 17.0952 107.597 16.9547 108.169 16.9742C110.113 16.9742 111.085 18.1882 111.085 20.6162L111.105 26.0298Z" fill="#7DAF42"/>
<path d="M114.62 15.7899C114.208 15.8125 113.804 15.6708 113.495 15.3954C113.356 15.2683 113.245 15.1129 113.17 14.9394C113.095 14.7659 113.058 14.5784 113.06 14.3892C113.055 14.2001 113.091 14.0122 113.166 13.8389C113.241 13.6655 113.354 13.5112 113.495 13.387C113.817 13.1361 114.213 13 114.62 13C115.027 13 115.423 13.1361 115.745 13.387C115.887 13.5112 115.999 13.6655 116.074 13.8389C116.15 14.0122 116.186 14.2001 116.18 14.3892C116.186 14.5806 116.15 14.7709 116.075 14.9468C116 15.1227 115.887 15.2798 115.745 15.4072C115.433 15.6754 115.03 15.8124 114.62 15.7899ZM115.957 26.049H113.249V17.2104H115.957V26.049Z" fill="#7DAF42"/>
<path d="M123.545 25.9234C122.974 26.1694 122.354 26.2788 121.734 26.243C119.824 26.243 118.87 25.2447 118.873 23.2481V19.1998H117.446V17.1914H118.873V15.2816L121.573 14.4924V17.1756H123.533V19.184H121.573V22.7589C121.573 23.6795 121.935 24.1399 122.659 24.1399C122.971 24.1332 123.276 24.0463 123.545 23.8874V25.9234Z" fill="#7DAF42"/>
<path d="M133.429 17.1916L129.862 26.7365C129.005 29.0329 127.713 30.1812 125.986 30.1812C125.438 30.1975 124.891 30.1215 124.367 29.9562V27.7821C124.724 27.992 125.13 28.1011 125.543 28.0978C125.86 28.1137 126.173 28.0258 126.436 27.8472C126.699 27.6686 126.897 27.409 127.001 27.1074L127.463 26.0104L123.897 17.1916H126.899L128.537 22.5658C128.649 22.9531 128.729 23.349 128.776 23.7495H128.812C128.876 23.3484 128.971 22.9528 129.094 22.5658L130.748 17.1719L133.429 17.1916Z" fill="#7DAF42"/>
<path d="M63.4861 38.0193L63.5096 34.7522H62.2319V34.1406L65.4967 34.1643V34.7759H64.219L64.1994 38.0193H63.4861Z" fill="#232323"/>
<path d="M66.7319 38.0427H66.0146L66.046 34.168H66.7593L66.7319 38.0427ZM68.8012 36.3973H66.6966V35.7818H68.8012V36.3973ZM68.762 34.1798H69.4753L69.4479 38.0546H68.7346L68.762 34.1798Z" fill="#232323"/>
<path d="M71.1918 37.4666H73.3631V38.0703L70.4746 38.0506L70.502 34.1719L73.3121 34.1955V34.7993H71.2153L71.1918 37.4666ZM71.1526 35.8054H73.0652V36.3973H71.1487L71.1526 35.8054Z" fill="#232323"/>
<path d="M77.478 38.1744C77.191 38.1756 76.9064 38.122 76.6393 38.0166C76.3943 37.921 76.1705 37.7775 75.9808 37.5944C75.7959 37.415 75.6504 37.1986 75.5537 36.9591C75.3493 36.4531 75.3493 35.8868 75.5537 35.3808C75.6548 35.1431 75.8044 34.9294 75.9926 34.7534C76.1861 34.5802 76.411 34.4462 76.655 34.3589C77.1866 34.1564 77.7733 34.1564 78.3049 34.3589C78.5574 34.4467 78.7904 34.5835 78.9908 34.7613C79.177 34.9405 79.3238 35.1569 79.4219 35.3966C79.6242 35.903 79.6242 36.4685 79.4219 36.9749C79.317 37.2223 79.1591 37.4432 78.9595 37.622C78.7679 37.7959 78.5442 37.93 78.301 38.0166C78.0388 38.1201 77.7597 38.1736 77.478 38.1744ZM77.478 37.5431C77.6629 37.5458 77.8466 37.5123 78.0188 37.4445C78.1807 37.3829 78.3276 37.2874 78.45 37.1643C78.572 37.0394 78.6692 36.8921 78.7361 36.7303C78.8079 36.5593 78.8439 36.3753 78.8419 36.1897C78.8449 36.0035 78.8116 35.8185 78.7439 35.6452C78.6799 35.4838 78.5854 35.3364 78.4656 35.2112C78.3451 35.0857 78.1995 34.9876 78.0384 34.9231C77.8662 34.8545 77.6828 34.8184 77.4976 34.8166C77.314 34.8143 77.1316 34.8478 76.9607 34.9152C76.7982 34.9755 76.651 35.0712 76.5295 35.1954C76.4071 35.3185 76.3099 35.4646 76.2434 35.6255C76.1075 35.9756 76.1075 36.3644 76.2434 36.7145C76.3061 36.8766 76.4007 37.0243 76.5217 37.1485C76.6422 37.2739 76.7878 37.3721 76.9489 37.4366C77.1157 37.5052 77.2939 37.5413 77.4741 37.5431H77.478ZM78.7282 38.9754C78.5961 38.9727 78.4647 38.9555 78.3363 38.9241C78.1981 38.893 78.0658 38.8397 77.9444 38.7663C77.8034 38.687 77.6719 38.5917 77.5525 38.4822C77.401 38.3456 77.2571 38.2007 77.1213 38.0482L77.8817 37.8548C77.9655 37.9761 78.0628 38.0873 78.1717 38.1863C78.2516 38.261 78.3429 38.3223 78.4421 38.3678C78.5285 38.4066 78.6219 38.4267 78.7165 38.427C78.8424 38.4267 78.9667 38.3991 79.0811 38.346C79.1954 38.2929 79.297 38.2155 79.3788 38.1192L79.708 38.5138C79.5883 38.6593 79.4379 38.7763 79.2678 38.8561C79.0977 38.936 78.912 38.9767 78.7243 38.9754H78.7282Z" fill="#232323"/>
<path d="M81.9573 38.2076C81.7315 38.219 81.5058 38.1843 81.2936 38.1057C81.0815 38.027 80.8873 37.906 80.7228 37.7499C80.5646 37.5733 80.444 37.366 80.3685 37.1406C80.293 36.9153 80.2642 36.6768 80.2838 36.4399V34.2539H80.9971V36.4123C80.9673 36.7245 81.057 37.0364 81.2479 37.2843C81.3423 37.3784 81.4553 37.4516 81.5795 37.4992C81.7037 37.5468 81.8364 37.5676 81.9691 37.5605C82.101 37.5699 82.2334 37.5513 82.3576 37.5057C82.4819 37.4602 82.5952 37.3887 82.6902 37.2961C82.8805 37.0491 82.9727 36.7397 82.9489 36.428V34.2697H83.6543V36.4557C83.6683 36.6913 83.6348 36.9274 83.556 37.1498C83.4773 37.3722 83.3547 37.5763 83.1958 37.7499C83.0308 37.9065 82.836 38.0278 82.6231 38.1065C82.4103 38.1851 82.1838 38.2195 81.9573 38.2076Z" fill="#232323"/>
<path d="M85.3588 37.572H87.534V38.1757L84.6455 38.156L84.6729 34.2812L87.483 34.301V34.9047H85.3862L85.3588 37.572ZM85.3196 35.9109H87.2322V36.5027H85.3157L85.3196 35.9109Z" fill="#232323"/>
<path d="M89.5216 38.2608C89.2276 38.2595 88.9355 38.2129 88.6555 38.1227C88.4182 38.0546 88.197 37.9392 88.0049 37.7833L88.2557 37.227C88.6231 37.5024 89.0675 37.6543 89.5255 37.661C89.691 37.6695 89.8567 37.6495 90.0154 37.6018C90.1225 37.5696 90.2179 37.5065 90.2898 37.4203C90.3491 37.3483 90.381 37.2574 90.3799 37.1638C90.3824 37.1099 90.3723 37.0562 90.3506 37.0069C90.3288 36.9576 90.2959 36.914 90.2545 36.8797C90.1594 36.7995 90.0486 36.7403 89.9292 36.7061C89.796 36.6627 89.647 36.6193 89.4864 36.5838C89.3257 36.5483 89.1611 36.5009 88.9964 36.4496C88.8417 36.4015 88.693 36.3353 88.5536 36.2524C88.4215 36.1733 88.31 36.0638 88.2283 35.9328C88.1396 35.777 88.0961 35.5992 88.1029 35.4198C88.104 35.215 88.1638 35.015 88.2753 34.8437C88.4032 34.6578 88.5814 34.5126 88.7887 34.4255C89.0647 34.3133 89.3615 34.2622 89.6588 34.2755C89.8906 34.2754 90.1214 34.3073 90.3447 34.3702C90.5557 34.4227 90.7569 34.5093 90.9404 34.6267L90.7092 35.187C90.5435 35.0832 90.364 35.0035 90.1761 34.9503C90.0051 34.9017 89.8286 34.8752 89.651 34.8713C89.4873 34.8656 89.324 34.8897 89.1689 34.9424C89.0629 34.9768 88.9691 35.0411 88.8985 35.1278C88.8412 35.2037 88.8108 35.2968 88.8122 35.3922C88.8093 35.4463 88.8187 35.5005 88.8398 35.5504C88.8608 35.6003 88.893 35.6447 88.9337 35.6802C89.0276 35.7592 89.1372 35.817 89.2551 35.8499C89.3884 35.8933 89.5373 35.9328 89.7019 35.9722C89.8665 36.0117 90.0311 36.059 90.1957 36.1064C90.3507 36.1522 90.4995 36.2171 90.6386 36.2997C90.7711 36.3751 90.8818 36.4839 90.96 36.6154C91.0465 36.769 91.0885 36.944 91.0815 37.1204C91.0799 37.3239 91.02 37.5225 90.909 37.6926C90.78 37.8791 90.6004 38.0243 90.3917 38.1108C90.1153 38.2217 89.8189 38.2728 89.5216 38.2608Z" fill="#232323"/>
<path d="M92.5115 38.2263L92.535 34.9631H91.2573V34.3555L94.526 34.3791V34.9868H93.2483L93.2248 38.2539L92.5115 38.2263Z" fill="#232323"/>
<path d="M97.2738 38.2615H96.5605L96.588 34.3867H99.3981V34.9904H97.3013L97.2738 38.2615ZM97.2268 36.1702H99.1472V36.7818H97.2268V36.1702Z" fill="#232323"/>
<path d="M101.82 38.3543C101.537 38.3542 101.256 38.3007 100.993 38.1965C100.747 38.1016 100.523 37.9581 100.334 37.7743C100.149 37.594 100.003 37.3779 99.9032 37.139C99.7041 36.632 99.7041 36.0677 99.9032 35.5607C100.006 35.3238 100.155 35.1103 100.342 34.9333C100.535 34.753 100.762 34.6123 101.008 34.519C101.54 34.3166 102.127 34.3166 102.658 34.519C102.902 34.6152 103.124 34.7586 103.313 34.9412C103.498 35.1215 103.644 35.3376 103.744 35.5765C103.846 35.8267 103.897 36.0952 103.893 36.3656C103.892 36.6369 103.838 36.9052 103.732 37.1548C103.632 37.3929 103.482 37.6067 103.293 37.7822C103.101 37.9565 102.876 38.0906 102.631 38.1768C102.374 38.2863 102.099 38.3465 101.82 38.3543ZM101.82 37.723C102.004 37.725 102.188 37.6929 102.361 37.6283C102.522 37.5639 102.669 37.4672 102.792 37.3442C102.914 37.2208 103.011 37.0747 103.078 36.9141C103.147 36.7409 103.183 36.5562 103.184 36.3696C103.187 36.1834 103.153 35.9984 103.086 35.8251C103.022 35.6627 102.926 35.5151 102.803 35.391C102.684 35.2645 102.538 35.1661 102.376 35.103C102.205 35.0344 102.023 34.9983 101.839 34.9965C101.656 34.9941 101.473 35.0276 101.302 35.0951C101.141 35.1576 100.994 35.253 100.871 35.3753C100.749 35.4992 100.651 35.6451 100.581 35.8054C100.513 35.9788 100.477 36.1634 100.475 36.3499C100.473 36.536 100.506 36.721 100.573 36.8944C100.638 37.0565 100.734 37.2041 100.856 37.3287C100.978 37.4533 101.123 37.5524 101.283 37.6204C101.454 37.6873 101.636 37.7221 101.82 37.723Z" fill="#232323"/>
<path d="M104.65 38.3167L104.677 34.4419H106.245C106.545 34.4351 106.843 34.493 107.119 34.6116C107.349 34.7128 107.544 34.8803 107.679 35.093C107.815 35.3144 107.883 35.5709 107.875 35.8309C107.879 36.0902 107.808 36.345 107.672 36.5648C107.531 36.7722 107.334 36.934 107.103 37.0304C106.824 37.1428 106.526 37.1965 106.225 37.1882H105.05L105.371 36.8647V38.3207L104.65 38.3167ZM105.375 36.9436L105.058 36.5963H106.233C106.487 36.6177 106.74 36.5478 106.947 36.3991C107.027 36.3287 107.09 36.2412 107.132 36.1428C107.174 36.0445 107.194 35.9379 107.19 35.8309C107.196 35.7238 107.178 35.6166 107.138 35.5175C107.097 35.4183 107.034 35.3299 106.954 35.2587C106.747 35.1102 106.495 35.0378 106.241 35.0535H105.089L105.41 34.7024L105.375 36.9436ZM107.166 38.3364L106.206 36.9199H106.97L107.938 38.3325L107.166 38.3364Z" fill="#232323"/>
<path d="M111.841 38.4106C111.615 38.4225 111.388 38.3881 111.175 38.3095C110.963 38.2308 110.768 38.1095 110.603 37.9529C110.447 37.7772 110.328 37.5717 110.252 37.3487C110.177 37.1257 110.147 36.8897 110.164 36.6547V34.4688H110.881V36.6271C110.85 36.9388 110.938 37.2507 111.128 37.4991C111.329 37.6733 111.586 37.7691 111.851 37.7691C112.116 37.7691 112.373 37.6733 112.574 37.4991C112.764 37.2521 112.857 36.9427 112.833 36.631V34.4727H113.534V36.6587C113.548 36.894 113.515 37.1298 113.437 37.3521C113.359 37.5744 113.238 37.7787 113.08 37.9529C112.915 38.1095 112.72 38.2308 112.507 38.3095C112.294 38.3881 112.068 38.4225 111.841 38.4106Z" fill="#232323"/>
<path d="M114.526 38.3904L114.553 34.5156H115.141L117.532 37.5184H117.242L117.265 34.5354H117.975L117.943 38.4141H117.356L114.965 35.4153H115.255L115.235 38.4022L114.526 38.3904Z" fill="#232323"/>
<path d="M118.967 38.4138L118.994 34.5391H119.711L119.684 38.4138H118.967Z" fill="#232323"/>
<path d="M121.514 38.4412L121.537 35.1741H120.264V34.5664L123.528 34.5901V35.1977H122.255L122.231 38.4609L121.514 38.4412Z" fill="#232323"/>
<path d="M124.936 38.4647V36.9338L125.092 37.3757L123.438 34.5781H124.203L125.527 36.8312H125.1L126.468 34.5978H127.197L125.504 37.3599L125.672 36.918V38.4529L124.936 38.4647Z" fill="#232323"/>
</svg>
