<svg width="20" height="20" viewBox="0 0 20 20" fill="none" xmlns="http://www.w3.org/2000/svg">
<g clip-path="url(#clip0_202_5331)">
<mask id="mask0_202_5331" style="mask-type:luminance" maskUnits="userSpaceOnUse" x="0" y="0" width="20" height="20">
<path d="M0 1.90735e-06H20V20H0V1.90735e-06Z" fill="white"/>
</mask>
<g mask="url(#mask0_202_5331)">
<path d="M10 14.8804C7.55452 12.5046 7.96198 8.0994 7.96198 8.0994" stroke="#141414" stroke-miterlimit="10"/>
<path d="M10 14.8804C12.4455 12.5046 12.0381 8.09354 12.0381 8.09354" stroke="#141414" stroke-miterlimit="10"/>
<path d="M10 14.8804V19.4141" stroke="#141414" stroke-miterlimit="10"/>
<path d="M12.0636 8.63981H12.2827C13.8106 8.63981 15.0491 9.87941 15.0491 11.4086V19.4141H4.95105V11.4086C4.95105 9.87941 6.1896 8.63981 7.71742 8.63981H7.93656" stroke="#141414" stroke-miterlimit="10"/>
<path d="M12.7308 4.11905V6.29245C12.7308 7.80007 11.5082 9.02222 10 9.02222C8.49178 9.02222 7.26917 7.80007 7.26917 6.29245V3.94905" stroke="#141414" stroke-miterlimit="10"/>
<path d="M12.7308 4.11914H8.02279C7.05369 4.11914 6.26807 3.33352 6.26807 2.36441V0.586016H10.9761C11.9453 0.586016 12.7308 1.37164 12.7308 2.34074V4.11914Z" stroke="#141414" stroke-miterlimit="10"/>
<path d="M4.94193 12.1675C3.49587 12.1675 2.32361 10.9957 2.32361 9.55022V8.04803C2.32361 6.60256 3.49583 5.43076 4.94189 5.43076C6.07326 5.43076 7.0422 6.14807 7.40806 7.15252" stroke="#141414" stroke-miterlimit="10"/>
<path d="M3.10421 11.4142C1.65164 11.8347 0.589722 13.1743 0.589722 14.7618V19.4141H4.95101" stroke="#141414" stroke-miterlimit="10"/>
<path d="M15.0657 12.1675C16.5117 12.1675 17.6839 10.9957 17.6839 9.55022V8.04803C17.6839 6.60256 16.5117 5.43076 15.0657 5.43076C13.9343 5.43076 12.9653 6.14807 12.5995 7.15252" stroke="#141414" stroke-miterlimit="10"/>
<path d="M16.9034 11.4142C18.3559 11.8347 19.4178 13.1743 19.4178 14.7618V19.4141H15.0565" stroke="#141414" stroke-miterlimit="10"/>
</g>
</g>
<defs>
<clipPath id="clip0_202_5331">
<rect width="20" height="20" fill="white"/>
</clipPath>
</defs>
</svg>
