<svg width="54" height="54" viewBox="0 0 54 54" fill="none" xmlns="http://www.w3.org/2000/svg">
<path d="M0 16C0 7.16344 7.16344 0 16 0H38C46.8366 0 54 7.16344 54 16V38C54 46.8366 46.8366 54 38 54H16C7.16344 54 0 46.8366 0 38V16Z" fill="white" fill-opacity="0.56"/>
<g clip-path="url(#clip0_146_35784)">
<path d="M36.1989 33.2092L31.1577 32.3781V29.9253C33.1204 28.481 34.3267 26.2053 34.3267 23.6916V20.3267C34.3267 16.2867 31.0399 13 27 13C22.9601 13 19.6733 16.2867 19.6733 20.3267V23.6916C19.6733 26.2305 20.8716 28.5188 22.8423 29.9578V32.3781L17.8015 33.2092C15.0314 33.6645 13 36.0613 13 38.8644V40.1765C13 40.6313 13.3687 41 13.8235 41H40.1765C40.6313 41 41 40.6313 41 40.1765V38.8644C41 36.0576 38.9648 33.6639 36.1989 33.2092ZM21.3204 23.6916V20.3267C21.3204 17.1949 23.8683 14.6471 27 14.6471C30.1317 14.6471 32.6796 17.1949 32.6796 20.3267V23.6916C32.6796 27.2275 29.6714 29.7085 26.9726 29.7085C24.2373 29.7085 21.3204 27.2654 21.3204 23.6916ZM29.5107 30.8484V32.9971C29.2693 34.179 28.2242 35.0302 27 35.0302C25.7758 35.0302 24.7307 34.179 24.4893 32.9971V30.8693C26.1408 31.5243 27.8557 31.5176 29.5107 30.8484ZM39.3529 39.3529H14.6471V38.8644C14.6471 36.8552 16.086 35.1604 18.069 34.8344L23.0756 34.009C23.6927 35.5938 25.2335 36.6773 27 36.6773C28.7665 36.6773 30.3073 35.5939 30.9244 34.009L35.9314 34.8345C37.914 35.1604 39.3529 36.8552 39.3529 38.8644V39.3529Z" fill="#10969F"/>
<path d="M25.1956 21.04C25.6504 21.04 26.0191 20.6713 26.0191 20.2165C26.0191 19.6511 26.4956 19.1982 27.0709 19.2384C27.5466 19.2713 27.9449 19.6696 27.9777 20.1452C28.0088 20.5964 27.7321 21.0091 27.3049 21.1488C26.6297 21.3695 26.1761 21.9918 26.1761 22.6973V23.2987C26.1761 23.7535 26.5448 24.1222 26.9996 24.1222C27.4544 24.1222 27.8232 23.7535 27.8232 23.2987V22.7121C28.9648 22.3357 29.7038 21.2344 29.6208 20.0318C29.5312 18.7323 28.4837 17.6849 27.1843 17.5953C25.6579 17.4899 24.3721 18.7003 24.3721 20.2164C24.3721 20.6713 24.7407 21.04 25.1956 21.04Z" fill="#10969F"/>
<path d="M27.0003 24.8728C26.5455 24.8728 26.1768 25.2415 26.1768 25.6963V25.7557C26.1768 26.2105 26.5455 26.5792 27.0003 26.5792C27.4551 26.5792 27.8238 26.2105 27.8238 25.7557V25.6963C27.8238 25.2415 27.4551 24.8728 27.0003 24.8728Z" fill="#10969F"/>
</g>
<defs>
<clipPath id="clip0_146_35784">
<rect width="28" height="28" fill="white" transform="translate(13 13)"/>
</clipPath>
</defs>
</svg>
