<svg width="50" height="50" viewBox="0 0 50 50" fill="none" xmlns="http://www.w3.org/2000/svg">
<g filter="url(#filter0_dd_145_34415)">
<path d="M5 17C5 8.16344 12.1634 1 21 1H29C37.8366 1 45 8.16344 45 17V25C45 33.8366 37.8366 41 29 41H21C12.1634 41 5 33.8366 5 25V17Z" fill="url(#paint0_linear_145_34415)" shape-rendering="crispEdges"/>
<path d="M33.125 13.5H22.0225C21.6741 13.4988 21.3323 13.5952 21.0359 13.7784C20.7395 13.9616 20.5004 14.2241 20.3456 14.5363L17.7387 19.75H16.875C16.3777 19.75 15.9008 19.9476 15.5492 20.2992C15.1975 20.6508 15 21.1277 15 21.625V24.125C15.0011 24.5135 15.1232 24.8919 15.3492 25.2079C15.5752 25.5238 15.894 25.7616 16.2612 25.8881C16.2612 25.9263 16.25 25.9619 16.25 26C16.25 26.6631 16.5134 27.2989 16.9822 27.7678C17.4511 28.2366 18.087 28.5 18.75 28.5C19.413 28.5 20.0489 28.2366 20.5178 27.7678C20.9866 27.2989 21.25 26.6631 21.25 26H26.875C27.0408 26 27.1997 25.9342 27.3169 25.817C27.4342 25.6997 27.5 25.5408 27.5 25.375C27.5 25.2093 27.4342 25.0503 27.3169 24.9331C27.1997 24.8159 27.0408 24.75 26.875 24.75H20.9025C20.6882 24.3746 20.3795 24.0617 20.007 23.8423C19.6345 23.6229 19.2112 23.5047 18.779 23.4993C18.3467 23.4939 17.9206 23.6016 17.5427 23.8117C17.1649 24.0218 16.8486 24.3269 16.625 24.6969C16.5137 24.6483 16.4189 24.5683 16.3523 24.4668C16.2857 24.3652 16.2502 24.2465 16.25 24.125V21.625C16.25 21.4593 16.3158 21.3003 16.4331 21.1831C16.5503 21.0659 16.7092 21 16.875 21H18.125C18.1983 20.9981 18.2706 20.9833 18.3387 20.9563C18.3575 20.9496 18.3759 20.9419 18.3937 20.9331C18.448 20.9071 18.4981 20.8732 18.5425 20.8325C18.5519 20.8244 18.5619 20.8188 18.5706 20.81C18.6158 20.7642 18.6538 20.7117 18.6831 20.6544L21.4625 15.0956C21.5141 14.9914 21.594 14.9037 21.693 14.8426C21.792 14.7815 21.9062 14.7494 22.0225 14.75H27.5V19.75H20.625C20.4592 19.75 20.3003 19.8159 20.1831 19.9331C20.0658 20.0503 20 20.2093 20 20.375C20 20.5408 20.0658 20.6997 20.1831 20.817C20.3003 20.9342 20.4592 21 20.625 21H33.75V24.125C33.7498 24.2465 33.7143 24.3652 33.6477 24.4668C33.5811 24.5683 33.4863 24.6483 33.375 24.6969C33.058 24.187 32.5672 23.8089 31.9932 23.6326C31.4193 23.4562 30.8009 23.4933 30.2522 23.7372C29.7036 23.9811 29.2616 24.4152 29.0079 24.9594C28.7543 25.5036 28.706 26.1212 28.872 26.6982C29.0381 27.2752 29.4072 27.7727 29.9114 28.0989C30.4155 28.425 31.0206 28.5578 31.615 28.4727C32.2094 28.3876 32.7529 28.0904 33.1453 27.636C33.5377 27.1815 33.7525 26.6004 33.75 26C33.75 25.9619 33.7406 25.9263 33.7388 25.8881C34.106 25.7616 34.4248 25.5238 34.6508 25.2079C34.8768 24.8919 34.9989 24.5135 35 24.125V15.375C35 14.8777 34.8025 14.4008 34.4508 14.0492C34.0992 13.6976 33.6223 13.5 33.125 13.5ZM18.75 24.75C18.9972 24.75 19.2389 24.8233 19.4445 24.9607C19.65 25.098 19.8102 25.2932 19.9048 25.5217C19.9995 25.7501 20.0242 26.0014 19.976 26.2439C19.9278 26.4864 19.8087 26.7091 19.6339 26.8839C19.4591 27.0587 19.2363 27.1778 18.9939 27.226C18.7514 27.2742 18.5001 27.2495 18.2716 27.1549C18.0432 27.0603 17.848 26.9 17.7107 26.6945C17.5733 26.4889 17.5 26.2472 17.5 26C17.5 25.6685 17.6317 25.3505 17.8661 25.1161C18.1005 24.8817 18.4185 24.75 18.75 24.75ZM31.25 27.25C31.0028 27.25 30.7611 27.1767 30.5555 27.0393C30.35 26.902 30.1898 26.7068 30.0951 26.4784C30.0005 26.25 29.9758 25.9986 30.024 25.7561C30.0722 25.5137 30.1913 25.2909 30.3661 25.1161C30.5409 24.9413 30.7637 24.8223 31.0061 24.774C31.2486 24.7258 31.4999 24.7506 31.7284 24.8452C31.9568 24.9398 32.152 25.1 32.2893 25.3055C32.4267 25.5111 32.5 25.7528 32.5 26C32.5 26.3315 32.3683 26.6495 32.1339 26.8839C31.8995 27.1183 31.5815 27.25 31.25 27.25ZM28.75 19.75V14.75H33.125C33.2908 14.75 33.4497 14.8159 33.5669 14.9331C33.6842 15.0503 33.75 15.2093 33.75 15.375V19.75H28.75Z" fill="white"/>
</g>
<defs>
<filter id="filter0_dd_145_34415" x="0" y="0" width="50" height="50" filterUnits="userSpaceOnUse" color-interpolation-filters="sRGB">
<feFlood flood-opacity="0" result="BackgroundImageFix"/>
<feColorMatrix in="SourceAlpha" type="matrix" values="0 0 0 0 0 0 0 0 0 0 0 0 0 0 0 0 0 0 127 0" result="hardAlpha"/>
<feMorphology radius="2" operator="erode" in="SourceAlpha" result="effect1_dropShadow_145_34415"/>
<feOffset dy="2"/>
<feGaussianBlur stdDeviation="2"/>
<feComposite in2="hardAlpha" operator="out"/>
<feColorMatrix type="matrix" values="0 0 0 0 0 0 0 0 0 0 0 0 0 0 0 0 0 0 0.1 0"/>
<feBlend mode="normal" in2="BackgroundImageFix" result="effect1_dropShadow_145_34415"/>
<feColorMatrix in="SourceAlpha" type="matrix" values="0 0 0 0 0 0 0 0 0 0 0 0 0 0 0 0 0 0 127 0" result="hardAlpha"/>
<feMorphology radius="1" operator="erode" in="SourceAlpha" result="effect2_dropShadow_145_34415"/>
<feOffset dy="4"/>
<feGaussianBlur stdDeviation="3"/>
<feComposite in2="hardAlpha" operator="out"/>
<feColorMatrix type="matrix" values="0 0 0 0 0 0 0 0 0 0 0 0 0 0 0 0 0 0 0.1 0"/>
<feBlend mode="normal" in2="effect1_dropShadow_145_34415" result="effect2_dropShadow_145_34415"/>
<feBlend mode="normal" in="SourceGraphic" in2="effect2_dropShadow_145_34415" result="shape"/>
</filter>
<linearGradient id="paint0_linear_145_34415" x1="5" y1="1" x2="45" y2="41" gradientUnits="userSpaceOnUse">
<stop stop-color="#5CEFBC"/>
<stop offset="1" stop-color="#1AAF67"/>
</linearGradient>
</defs>
</svg>
