<svg width="50" height="50" viewBox="0 0 50 50" fill="none" xmlns="http://www.w3.org/2000/svg">
<g filter="url(#filter0_dd_145_34337)">
<path d="M5 17C5 8.16344 12.1634 1 21 1H29C37.8366 1 45 8.16344 45 17V25C45 33.8366 37.8366 41 29 41H21C12.1634 41 5 33.8366 5 25V17Z" fill="url(#paint0_linear_145_34337)" shape-rendering="crispEdges"/>
<g clip-path="url(#clip0_145_34337)">
<path d="M29.9961 13.4302C30.6162 14.0513 30.9999 14.9088 31 15.855C31 17.7487 29.4657 19.2844 27.5713 19.2847V31.2886H25.8555V26.144H24.1416V31.2886H22.4268V19.2847C20.5321 19.2847 18.9971 17.7489 18.9971 15.855C18.9972 14.9088 19.3816 14.0515 20.002 13.4302L21.2139 14.6431C20.9043 14.9537 20.712 15.3821 20.7119 15.855C20.7119 16.802 21.4797 17.5698 22.4268 17.5698H27.5713C28.5181 17.5696 29.2861 16.8019 29.2861 15.855C29.286 15.3824 29.0928 14.9537 28.7832 14.6431L29.9961 13.4302ZM24.1416 19.2847V24.4292H25.8555V19.2847H24.1416Z" fill="white"/>
<path d="M25.002 10.7114C26.422 10.7114 27.5742 11.8621 27.5742 13.2837C27.574 14.7036 26.4219 15.855 25.002 15.855C23.5822 15.8548 22.4309 14.7035 22.4307 13.2837C22.4307 11.8622 23.5821 10.7117 25.002 10.7114ZM25.001 12.4263C24.5272 12.4263 24.1436 12.8102 24.1436 13.2837C24.1437 13.7558 24.5273 14.1411 25.001 14.1411C25.4748 14.1409 25.8575 13.7557 25.8574 13.2837C25.8574 12.8103 25.4746 12.4265 25.001 12.4263Z" fill="white"/>
</g>
</g>
<defs>
<filter id="filter0_dd_145_34337" x="0" y="0" width="50" height="50" filterUnits="userSpaceOnUse" color-interpolation-filters="sRGB">
<feFlood flood-opacity="0" result="BackgroundImageFix"/>
<feColorMatrix in="SourceAlpha" type="matrix" values="0 0 0 0 0 0 0 0 0 0 0 0 0 0 0 0 0 0 127 0" result="hardAlpha"/>
<feMorphology radius="2" operator="erode" in="SourceAlpha" result="effect1_dropShadow_145_34337"/>
<feOffset dy="2"/>
<feGaussianBlur stdDeviation="2"/>
<feComposite in2="hardAlpha" operator="out"/>
<feColorMatrix type="matrix" values="0 0 0 0 0 0 0 0 0 0 0 0 0 0 0 0 0 0 0.1 0"/>
<feBlend mode="normal" in2="BackgroundImageFix" result="effect1_dropShadow_145_34337"/>
<feColorMatrix in="SourceAlpha" type="matrix" values="0 0 0 0 0 0 0 0 0 0 0 0 0 0 0 0 0 0 127 0" result="hardAlpha"/>
<feMorphology radius="1" operator="erode" in="SourceAlpha" result="effect2_dropShadow_145_34337"/>
<feOffset dy="4"/>
<feGaussianBlur stdDeviation="3"/>
<feComposite in2="hardAlpha" operator="out"/>
<feColorMatrix type="matrix" values="0 0 0 0 0 0 0 0 0 0 0 0 0 0 0 0 0 0 0.1 0"/>
<feBlend mode="normal" in2="effect1_dropShadow_145_34337" result="effect2_dropShadow_145_34337"/>
<feBlend mode="normal" in="SourceGraphic" in2="effect2_dropShadow_145_34337" result="shape"/>
</filter>
<linearGradient id="paint0_linear_145_34337" x1="5" y1="1" x2="45" y2="41" gradientUnits="userSpaceOnUse">
<stop stop-color="#FDC700"/>
<stop offset="1" stop-color="#CF8A41"/>
</linearGradient>
<clipPath id="clip0_145_34337">
<rect width="20" height="20" fill="white" transform="translate(15 11)"/>
</clipPath>
</defs>
</svg>
