<svg width="50" height="50" viewBox="0 0 50 50" fill="none" xmlns="http://www.w3.org/2000/svg">
<g filter="url(#filter0_dd_146_35263)">
<path d="M5 17C5 8.16344 12.1634 1 21 1H29C37.8366 1 45 8.16344 45 17V25C45 33.8366 37.8366 41 29 41H21C12.1634 41 5 33.8366 5 25V17Z" fill="url(#paint0_linear_146_35263)" shape-rendering="crispEdges"/>
<g clip-path="url(#clip0_146_35263)">
<path d="M29.9951 13.4302C30.6152 14.0513 30.9989 14.9088 30.999 15.855C30.999 17.7487 29.4647 19.2844 27.5703 19.2847V31.2886H25.8545V26.144H24.1406V31.2886H22.4258V19.2847C20.5311 19.2847 18.9961 17.7489 18.9961 15.855C18.9962 14.9088 19.3807 14.0515 20.001 13.4302L21.2129 14.6431C20.9033 14.9537 20.711 15.3821 20.7109 15.855C20.7109 16.802 21.4787 17.5698 22.4258 17.5698H27.5703C28.5172 17.5696 29.2852 16.8019 29.2852 15.855C29.2851 15.3824 29.0918 14.9537 28.7822 14.6431L29.9951 13.4302ZM24.1406 19.2847V24.4292H25.8545V19.2847H24.1406Z" fill="white"/>
<path d="M25.002 10.7114C26.422 10.7115 27.5742 11.8621 27.5742 13.2837C27.574 14.7036 26.4219 15.8559 25.002 15.856C23.582 15.856 22.4299 14.7036 22.4297 13.2837C22.4297 11.8621 23.5819 10.7114 25.002 10.7114ZM24.998 12.4263C24.5243 12.4263 24.1406 12.8102 24.1406 13.2837C24.1408 13.7558 24.5244 14.1401 24.998 14.1401C25.4719 14.1401 25.8555 13.7557 25.8555 13.2837C25.8555 12.8102 25.4718 12.4263 24.998 12.4263Z" fill="white"/>
</g>
</g>
<defs>
<filter id="filter0_dd_146_35263" x="0" y="0" width="50" height="50" filterUnits="userSpaceOnUse" color-interpolation-filters="sRGB">
<feFlood flood-opacity="0" result="BackgroundImageFix"/>
<feColorMatrix in="SourceAlpha" type="matrix" values="0 0 0 0 0 0 0 0 0 0 0 0 0 0 0 0 0 0 127 0" result="hardAlpha"/>
<feMorphology radius="2" operator="erode" in="SourceAlpha" result="effect1_dropShadow_146_35263"/>
<feOffset dy="2"/>
<feGaussianBlur stdDeviation="2"/>
<feComposite in2="hardAlpha" operator="out"/>
<feColorMatrix type="matrix" values="0 0 0 0 0 0 0 0 0 0 0 0 0 0 0 0 0 0 0.1 0"/>
<feBlend mode="normal" in2="BackgroundImageFix" result="effect1_dropShadow_146_35263"/>
<feColorMatrix in="SourceAlpha" type="matrix" values="0 0 0 0 0 0 0 0 0 0 0 0 0 0 0 0 0 0 127 0" result="hardAlpha"/>
<feMorphology radius="1" operator="erode" in="SourceAlpha" result="effect2_dropShadow_146_35263"/>
<feOffset dy="4"/>
<feGaussianBlur stdDeviation="3"/>
<feComposite in2="hardAlpha" operator="out"/>
<feColorMatrix type="matrix" values="0 0 0 0 0 0 0 0 0 0 0 0 0 0 0 0 0 0 0.1 0"/>
<feBlend mode="normal" in2="effect1_dropShadow_146_35263" result="effect2_dropShadow_146_35263"/>
<feBlend mode="normal" in="SourceGraphic" in2="effect2_dropShadow_146_35263" result="shape"/>
</filter>
<linearGradient id="paint0_linear_146_35263" x1="5" y1="1" x2="45" y2="41" gradientUnits="userSpaceOnUse">
<stop stop-color="#FDC700"/>
<stop offset="1" stop-color="#CF8A41"/>
</linearGradient>
<clipPath id="clip0_146_35263">
<rect width="20" height="20" fill="white" transform="translate(15 11)"/>
</clipPath>
</defs>
</svg>
