<svg width="24" height="24" viewBox="0 0 24 24" fill="none" xmlns="http://www.w3.org/2000/svg">
<rect width="24" height="24" rx="5" fill="white"/>
<path d="M12.5 16.2885L8.23075 12.0192L9.28475 10.9348L11.75 13.4V5H13.25V13.4L15.7153 10.9348L16.7693 12.0192L12.5 16.2885ZM6.80775 20C6.30258 20 5.875 19.825 5.525 19.475C5.175 19.125 5 18.6974 5 18.1923V15.4808H6.5V18.1923C6.5 18.2692 6.53208 18.3398 6.59625 18.4038C6.66025 18.4679 6.73075 18.5 6.80775 18.5H18.1923C18.2692 18.5 18.3398 18.4679 18.4038 18.4038C18.4679 18.3398 18.5 18.2692 18.5 18.1923V15.4808H20V18.1923C20 18.6974 19.825 19.125 19.475 19.475C19.125 19.825 18.6974 20 18.1923 20H6.80775Z" fill="#9FC53D"/>
</svg>
