<svg width="18" height="19" viewBox="0 0 18 19" fill="none" xmlns="http://www.w3.org/2000/svg">
<path d="M8.37628 18.6667C8.08406 18.6667 7.84006 18.5688 7.64428 18.373C7.4485 18.1772 7.35061 17.9332 7.35061 17.641V10.205L0.155615 1.10767C-0.0237186 0.868333 -0.0480515 0.623888 0.0826152 0.374333C0.213504 0.124777 0.422504 0 0.709615 0H16.6583C16.9454 0 17.1544 0.124777 17.2853 0.374333C17.4159 0.623888 17.3916 0.868333 17.2123 1.10767L10.0173 10.205V17.641C10.0173 17.9332 9.91939 18.1772 9.72361 18.373C9.52784 18.5688 9.28384 18.6667 8.99162 18.6667H8.37628ZM8.68395 9.73333L15.2839 1.33333H2.08395L8.68395 9.73333Z" fill="#141414"/>
</svg>
