<svg width="15" height="15" viewBox="0 0 15 15" fill="none" xmlns="http://www.w3.org/2000/svg">
<path d="M13.4486 3.875C13.8011 3.52262 13.9992 3.04465 13.9992 2.54624C13.9993 2.04783 13.8014 1.56981 13.449 1.21734C13.0966 0.864863 12.6186 0.666811 12.1202 0.666748C11.6218 0.666686 11.1438 0.864618 10.7913 1.217L1.89397 10.1163C1.73918 10.2707 1.62471 10.4607 1.56064 10.6697L0.679972 13.571C0.662742 13.6287 0.661441 13.6899 0.676206 13.7482C0.690971 13.8066 0.721252 13.8598 0.763836 13.9023C0.80642 13.9449 0.859719 13.975 0.918078 13.9897C0.976436 14.0044 1.03768 14.003 1.09531 13.9857L3.99731 13.1057C4.20609 13.0422 4.39609 12.9284 4.55064 12.7743L13.4486 3.875Z" stroke="#155DFC" stroke-width="1.33333" stroke-linecap="round" stroke-linejoin="round"/>
</svg>
