<svg width="16" height="16" viewBox="0 0 16 16" fill="none" xmlns="http://www.w3.org/2000/svg">
<path d="M9.66536 2.6665H6.33203L4.66536 4.6665H2.66536C2.31174 4.6665 1.9726 4.80698 1.72256 5.05703C1.47251 5.30708 1.33203 5.64622 1.33203 5.99984V11.9998C1.33203 12.3535 1.47251 12.6926 1.72256 12.9426C1.9726 13.1927 2.31174 13.3332 2.66536 13.3332H13.332C13.6857 13.3332 14.0248 13.1927 14.2748 12.9426C14.5249 12.6926 14.6654 12.3535 14.6654 11.9998V5.99984C14.6654 5.64622 14.5249 5.30708 14.2748 5.05703C14.0248 4.80698 13.6857 4.6665 13.332 4.6665H11.332L9.66536 2.6665Z" stroke="#62748E" stroke-width="1.33333" stroke-linecap="round" stroke-linejoin="round"/>
<path d="M8 10.6667C9.10457 10.6667 10 9.77132 10 8.66675C10 7.56218 9.10457 6.66675 8 6.66675C6.89543 6.66675 6 7.56218 6 8.66675C6 9.77132 6.89543 10.6667 8 10.6667Z" stroke="#62748E" stroke-width="1.33333" stroke-linecap="round" stroke-linejoin="round"/>
</svg>
