<svg width="50" height="50" viewBox="0 0 50 50" fill="none" xmlns="http://www.w3.org/2000/svg">
<g filter="url(#filter0_dd_143_45397)">
<path d="M5 17C5 8.16344 12.1634 1 21 1H29C37.8366 1 45 8.16344 45 17V25C45 33.8366 37.8366 41 29 41H21C12.1634 41 5 33.8366 5 25V17Z" fill="url(#paint0_linear_143_45397)" shape-rendering="crispEdges"/>
<path d="M21.6666 12.667V16.0003" stroke="white" stroke-width="1.66667" stroke-linecap="round" stroke-linejoin="round"/>
<path d="M28.3334 12.667V16.0003" stroke="white" stroke-width="1.66667" stroke-linecap="round" stroke-linejoin="round"/>
<path d="M30.8333 14.333H19.1667C18.2462 14.333 17.5 15.0792 17.5 15.9997V27.6663C17.5 28.5868 18.2462 29.333 19.1667 29.333H30.8333C31.7538 29.333 32.5 28.5868 32.5 27.6663V15.9997C32.5 15.0792 31.7538 14.333 30.8333 14.333Z" stroke="white" stroke-width="1.66667" stroke-linecap="round" stroke-linejoin="round"/>
<path d="M17.5 19.333H32.5" stroke="white" stroke-width="1.66667" stroke-linecap="round" stroke-linejoin="round"/>
</g>
<defs>
<filter id="filter0_dd_143_45397" x="0" y="0" width="50" height="50" filterUnits="userSpaceOnUse" color-interpolation-filters="sRGB">
<feFlood flood-opacity="0" result="BackgroundImageFix"/>
<feColorMatrix in="SourceAlpha" type="matrix" values="0 0 0 0 0 0 0 0 0 0 0 0 0 0 0 0 0 0 127 0" result="hardAlpha"/>
<feMorphology radius="2" operator="erode" in="SourceAlpha" result="effect1_dropShadow_143_45397"/>
<feOffset dy="2"/>
<feGaussianBlur stdDeviation="2"/>
<feComposite in2="hardAlpha" operator="out"/>
<feColorMatrix type="matrix" values="0 0 0 0 0 0 0 0 0 0 0 0 0 0 0 0 0 0 0.1 0"/>
<feBlend mode="normal" in2="BackgroundImageFix" result="effect1_dropShadow_143_45397"/>
<feColorMatrix in="SourceAlpha" type="matrix" values="0 0 0 0 0 0 0 0 0 0 0 0 0 0 0 0 0 0 127 0" result="hardAlpha"/>
<feMorphology radius="1" operator="erode" in="SourceAlpha" result="effect2_dropShadow_143_45397"/>
<feOffset dy="4"/>
<feGaussianBlur stdDeviation="3"/>
<feComposite in2="hardAlpha" operator="out"/>
<feColorMatrix type="matrix" values="0 0 0 0 0 0 0 0 0 0 0 0 0 0 0 0 0 0 0.1 0"/>
<feBlend mode="normal" in2="effect1_dropShadow_143_45397" result="effect2_dropShadow_143_45397"/>
<feBlend mode="normal" in="SourceGraphic" in2="effect2_dropShadow_143_45397" result="shape"/>
</filter>
<linearGradient id="paint0_linear_143_45397" x1="5" y1="1" x2="45" y2="41" gradientUnits="userSpaceOnUse">
<stop stop-color="#FF8904"/>
<stop offset="1" stop-color="#FF6467"/>
</linearGradient>
</defs>
</svg>
