<svg width="24" height="24" viewBox="0 0 24 24" fill="none" xmlns="http://www.w3.org/2000/svg">
<g clip-path="url(#clip0_145_34408)">
<path d="M11.9974 23.3844C5.54751 23.3587 0.422456 18.0771 0.609451 11.6428C0.788073 5.49539 5.8213 0.541707 12.0884 0.585246C18.4002 0.629343 23.4574 5.78621 23.3949 12.0771C23.3324 18.3486 18.1923 23.448 11.9974 23.3844ZM12.2391 10.3623C11.0839 10.4002 10.051 10.8002 9.09734 11.4307C9.01668 11.484 8.93937 11.5498 8.87825 11.6244C8.66055 11.8901 8.73507 12.115 9.06329 12.2007C9.18944 12.2336 9.31894 12.2562 9.44286 12.2959C9.967 12.463 10.1082 12.7201 9.97538 13.2635C9.65218 14.5845 9.32257 15.904 9.00496 17.2264C8.7694 18.2077 9.26647 19.0101 10.2084 19.0829C11.6025 19.1904 12.8467 18.7304 13.9659 17.9227C14.0845 17.8373 14.1763 17.6247 14.1638 17.4812C14.1562 17.3941 13.9265 17.3224 13.792 17.2526C13.7354 17.2233 13.6667 17.2177 13.6036 17.2007C12.9801 17.0341 12.818 16.7734 12.969 16.1513C13.2816 14.8613 13.614 13.5761 13.9059 12.2813C13.9751 11.9749 13.9799 11.6227 13.9023 11.3204C13.7284 10.6472 13.1392 10.336 12.2391 10.3623ZM15.1395 6.41111C15.1412 5.22048 14.221 4.28104 13.0452 4.27323C11.8495 4.26514 10.8894 5.21574 10.8995 6.39715C10.9095 7.57466 11.8453 8.49903 13.0318 8.50294C14.1886 8.50684 15.1375 7.56489 15.1395 6.41111Z" fill="#9FC53D"/>
</g>
<defs>
<clipPath id="clip0_145_34408">
<rect width="24" height="24" fill="white"/>
</clipPath>
</defs>
</svg>
