<svg width="50" height="50" viewBox="0 0 50 50" fill="none" xmlns="http://www.w3.org/2000/svg">
<g filter="url(#filter0_dd_143_45424)">
<path d="M5 17C5 8.16344 12.1634 1 21 1H29C37.8366 1 45 8.16344 45 17V25C45 33.8366 37.8366 41 29 41H21C12.1634 41 5 33.8366 5 25V17Z" fill="url(#paint0_linear_143_45424)" shape-rendering="crispEdges"/>
<path d="M16.7183 21.2901C16.6489 21.103 16.6489 20.8972 16.7183 20.7101C17.3948 19.0699 18.5429 17.6676 20.0173 16.6808C21.4917 15.694 23.2259 15.1672 25 15.1672C26.7741 15.1672 28.5083 15.694 29.9827 16.6808C31.4571 17.6676 32.6053 19.0699 33.2817 20.7101C33.3511 20.8972 33.3511 21.103 33.2817 21.2901C32.6053 22.9302 31.4571 24.3325 29.9827 25.3193C28.5083 26.3061 26.7741 26.8329 25 26.8329C23.2259 26.8329 21.4917 26.3061 20.0173 25.3193C18.5429 24.3325 17.3948 22.9302 16.7183 21.2901Z" stroke="white" stroke-width="1.66667" stroke-linecap="round" stroke-linejoin="round"/>
<path d="M25 23.5C26.3807 23.5 27.5 22.3807 27.5 21C27.5 19.6193 26.3807 18.5 25 18.5C23.6193 18.5 22.5 19.6193 22.5 21C22.5 22.3807 23.6193 23.5 25 23.5Z" stroke="white" stroke-width="1.66667" stroke-linecap="round" stroke-linejoin="round"/>
</g>
<defs>
<filter id="filter0_dd_143_45424" x="0" y="0" width="50" height="50" filterUnits="userSpaceOnUse" color-interpolation-filters="sRGB">
<feFlood flood-opacity="0" result="BackgroundImageFix"/>
<feColorMatrix in="SourceAlpha" type="matrix" values="0 0 0 0 0 0 0 0 0 0 0 0 0 0 0 0 0 0 127 0" result="hardAlpha"/>
<feMorphology radius="2" operator="erode" in="SourceAlpha" result="effect1_dropShadow_143_45424"/>
<feOffset dy="2"/>
<feGaussianBlur stdDeviation="2"/>
<feComposite in2="hardAlpha" operator="out"/>
<feColorMatrix type="matrix" values="0 0 0 0 0 0 0 0 0 0 0 0 0 0 0 0 0 0 0.1 0"/>
<feBlend mode="normal" in2="BackgroundImageFix" result="effect1_dropShadow_143_45424"/>
<feColorMatrix in="SourceAlpha" type="matrix" values="0 0 0 0 0 0 0 0 0 0 0 0 0 0 0 0 0 0 127 0" result="hardAlpha"/>
<feMorphology radius="1" operator="erode" in="SourceAlpha" result="effect2_dropShadow_143_45424"/>
<feOffset dy="4"/>
<feGaussianBlur stdDeviation="3"/>
<feComposite in2="hardAlpha" operator="out"/>
<feColorMatrix type="matrix" values="0 0 0 0 0 0 0 0 0 0 0 0 0 0 0 0 0 0 0.1 0"/>
<feBlend mode="normal" in2="effect1_dropShadow_143_45424" result="effect2_dropShadow_143_45424"/>
<feBlend mode="normal" in="SourceGraphic" in2="effect2_dropShadow_143_45424" result="shape"/>
</filter>
<linearGradient id="paint0_linear_143_45424" x1="5" y1="1" x2="45" y2="41" gradientUnits="userSpaceOnUse">
<stop stop-color="#05DF72"/>
<stop offset="1" stop-color="#00D492"/>
</linearGradient>
</defs>
</svg>
