<svg width="50" height="73" viewBox="0 0 50 73" fill="none" xmlns="http://www.w3.org/2000/svg">
<path d="M5.32387 64.2836C5.48963 64.4611 5.66886 64.6258 5.85998 64.7762C6.0186 64.8976 6.19104 65.0001 6.37375 65.0816C6.54231 65.1567 6.72003 65.2097 6.90241 65.2392C7.09882 65.2678 7.29711 65.2818 7.49561 65.2811H7.68424C7.75374 65.2811 7.82324 65.2663 7.89521 65.254L8.09874 65.2121C8.16327 65.1949 8.22284 65.1752 8.27744 65.1555V66.6209C8.11877 66.6614 7.95804 66.6935 7.79593 66.717C7.54938 66.7524 7.30044 66.7688 7.05133 66.7663C6.71744 66.7691 6.3859 66.7107 6.07343 66.5939C5.76665 66.4755 5.47704 66.3173 5.21218 66.1234C4.92627 65.9123 4.65891 65.6775 4.41297 65.4215C4.15485 65.1506 3.88679 64.8616 3.60881 64.5545C3.10766 64.5467 2.61379 64.4342 2.15932 64.2245C1.73516 64.0275 1.35596 63.7468 1.04491 63.3994C0.729452 63.0385 0.48754 62.6202 0.332572 62.1679C0.162715 61.6852 0.0787317 61.1768 0.0843729 60.6655C0.0843729 59.4406 0.439298 58.4554 1.14915 57.7099C1.859 56.9645 2.80878 56.5868 3.99848 56.577C4.49768 56.5582 4.99515 56.6456 5.45748 56.8334C5.91982 57.0212 6.33632 57.3049 6.67904 57.6656C7.36903 58.3848 7.7132 59.3347 7.71154 60.5152C7.73432 61.3525 7.5156 62.1788 7.08112 62.8969C6.67136 63.544 6.05151 64.0332 5.32387 64.2836ZM3.93395 58.072C3.65177 58.0627 3.37143 58.1204 3.11627 58.2403C2.86112 58.3603 2.63855 58.539 2.46709 58.7616C2.11548 59.3027 1.92848 59.933 1.92848 60.5768C1.92848 61.2207 2.11548 61.8509 2.46709 62.392C2.63501 62.6072 2.85186 62.7798 3.09991 62.8958C3.34796 63.0118 3.62015 63.0679 3.89424 63.0595C4.16829 63.0709 4.44123 63.0185 4.6912 62.9064C4.94117 62.7944 5.16124 62.6258 5.33379 62.4142C5.71472 61.8909 5.9023 61.2533 5.86494 60.6088C5.86494 59.8133 5.69616 59.1951 5.35613 58.7493C5.19298 58.5301 4.9778 58.3542 4.7297 58.2373C4.4816 58.1205 4.20826 58.0662 3.93395 58.0794V58.072Z" fill="#0E536C"/>
<path d="M14.1126 64.4362H12.41V63.5939H12.3827C12.2136 63.8937 11.9668 64.1431 11.6678 64.3163C11.3689 64.4895 11.0287 64.5803 10.6825 64.5791C9.39519 64.5791 8.75153 63.8057 8.75153 62.259V58.9192H10.4616V62.0964C10.4616 62.8764 10.7727 63.2663 11.3949 63.2663C11.5353 63.2726 11.6754 63.247 11.8044 63.1915C11.9334 63.136 12.048 63.0521 12.1394 62.9462C12.3345 62.6955 12.4307 62.3829 12.41 62.0669V58.9192H14.1201L14.1126 64.4362Z" fill="#0E536C"/>
<path d="M20.5509 62.1605H16.9247C16.9818 62.9634 17.4906 63.3624 18.4511 63.3624C19.0186 63.3748 19.5777 63.2252 20.062 62.9314V64.1629C19.4382 64.4601 18.7503 64.6005 18.059 64.5718C17.1622 64.5718 16.4655 64.3255 15.9691 63.8329C15.4727 63.3403 15.2245 62.6515 15.2245 61.7664C15.2245 60.8502 15.4926 60.1244 16.0287 59.5892C16.2861 59.3268 16.5953 59.1201 16.937 58.9819C17.2787 58.8437 17.6455 58.7771 18.0143 58.7862C18.8251 58.7862 19.4522 59.0251 19.8957 59.503C20.3618 60.0422 20.6001 60.7393 20.5608 61.4487L20.5509 62.1605ZM18.96 61.1162C18.96 60.3264 18.6381 59.9315 17.9945 59.9315C17.8574 59.9319 17.7221 59.9627 17.5984 60.0215C17.4748 60.0803 17.3659 60.1656 17.2796 60.2714C17.0735 60.5091 16.9461 60.8041 16.9148 61.1162H18.96Z" fill="#0E536C"/>
<path d="M28.0862 61.0817C28.0862 63.4019 26.9966 64.5619 24.8175 64.5619C22.7061 64.5619 21.6496 63.4289 21.6479 61.163V56.71H23.4077V61.1926C23.4077 62.4421 23.9041 63.0669 24.8969 63.0669C25.8897 63.0669 26.3728 62.4635 26.3464 61.2566V56.71H28.0987L28.0862 61.0817Z" fill="#7DAF42"/>
<path d="M34.9812 64.4362H33.2711V61.3698C33.2711 60.5144 32.9633 60.0866 32.3478 60.0866C32.2055 60.0816 32.0641 60.1097 31.9348 60.1688C31.8055 60.2278 31.6919 60.3161 31.6032 60.4265C31.4047 60.6695 31.3024 60.976 31.3153 61.2885V64.4362H29.6002V58.9192H31.3153V59.7911H31.3376C31.5122 59.4759 31.7714 59.2149 32.0864 59.0371C32.4014 58.8593 32.76 58.7716 33.1222 58.7837C34.3532 58.7837 34.9688 59.5415 34.9688 61.057L34.9812 64.4362Z" fill="#7DAF42"/>
<path d="M37.2076 58.0448C36.9467 58.0589 36.6908 57.9704 36.4952 57.7985C36.407 57.7192 36.3369 57.6222 36.2894 57.5139C36.2419 57.4056 36.2181 57.2886 36.2197 57.1705C36.2162 57.0525 36.239 56.9351 36.2867 56.827C36.3343 56.7188 36.4055 56.6224 36.4952 56.5449C36.6992 56.3883 36.9497 56.3033 37.2076 56.3033C37.4654 56.3033 37.716 56.3883 37.9199 56.5449C38.0096 56.6224 38.0808 56.7188 38.1285 56.827C38.1761 56.9351 38.199 57.0525 38.1954 57.1705C38.1991 57.2899 38.1763 57.4087 38.1287 57.5185C38.0811 57.6283 38.0098 57.7264 37.9199 57.8059C37.7221 57.9733 37.4671 58.0589 37.2076 58.0448ZM38.0539 64.4486H36.3389V58.9315H38.0539V64.4486Z" fill="#7DAF42"/>
<path d="M42.8591 64.3697C42.4975 64.5233 42.105 64.5916 41.7124 64.5692C40.5028 64.5692 39.8989 63.9461 39.9005 62.6998V60.1728H38.9971V58.9192H39.9005V57.7271L41.6106 57.2345V58.9093H42.8516V60.163H41.6106V62.3944C41.6106 62.9691 41.8398 63.2565 42.2981 63.2565C42.4956 63.2523 42.6887 63.198 42.8591 63.0988V64.3697Z" fill="#7DAF42"/>
<path d="M49.1187 58.9192L46.8601 64.8771C46.3174 66.3106 45.4992 67.0273 44.4054 67.0273C44.0582 67.0375 43.7118 66.99 43.3804 66.8869V65.5298C43.6061 65.6608 43.8634 65.7289 44.125 65.7268C44.3255 65.7368 44.524 65.6819 44.6904 65.5704C44.8569 65.459 44.9825 65.2969 45.0483 65.1086L45.3411 64.4239L43.0825 58.9192H44.9837L46.0212 62.2737C46.0921 62.5155 46.1427 62.7626 46.1726 63.0126H46.1949C46.236 62.7623 46.2957 62.5153 46.3736 62.2737L47.421 58.9069L49.1187 58.9192Z" fill="#7DAF42"/>
<path d="M4.825 71.9188L4.83989 69.8794H4.03076V69.4977L6.09826 69.5125V69.8942H5.28913L5.27672 71.9188H4.825Z" fill="#232323"/>
<path d="M6.88011 71.9335H6.4259L6.44576 69.5149H6.89748L6.88011 71.9335ZM8.1906 70.9065H6.85777V70.5222H8.1906V70.9065ZM8.16578 69.5223H8.61751L8.60013 71.9409H8.14841L8.16578 69.5223Z" fill="#232323"/>
<path d="M9.70457 71.5765H11.0796V71.9533L9.25037 71.941L9.26774 69.5199L11.0473 69.5347V69.9115H9.71946L9.70457 71.5765ZM9.67975 70.5396H10.891V70.909H9.67727L9.67975 70.5396Z" fill="#232323"/>
<path d="M13.6857 72.0174C13.504 72.0181 13.3238 71.9847 13.1546 71.9188C12.9994 71.8592 12.8577 71.7696 12.7376 71.6553C12.6205 71.5433 12.5283 71.4082 12.4671 71.2588C12.3376 70.9429 12.3376 70.5894 12.4671 70.2736C12.5311 70.1252 12.6258 69.9918 12.745 69.882C12.8676 69.7738 13.01 69.6902 13.1645 69.6357C13.5012 69.5093 13.8727 69.5093 14.2094 69.6357C14.3693 69.6905 14.5169 69.7759 14.6438 69.8869C14.7616 69.9987 14.8546 70.1338 14.9168 70.2834C15.0449 70.5995 15.0449 70.9525 14.9168 71.2686C14.8503 71.423 14.7503 71.5609 14.6239 71.6725C14.5026 71.7811 14.3609 71.8648 14.2069 71.9188C14.0408 71.9834 13.8641 72.0168 13.6857 72.0174ZM13.6857 71.6233C13.8028 71.625 13.9192 71.6041 14.0282 71.5617C14.1307 71.5233 14.2238 71.4637 14.3012 71.3868C14.3786 71.3089 14.4401 71.2169 14.4824 71.1159C14.5279 71.0092 14.5507 70.8943 14.5494 70.7785C14.5514 70.6623 14.5303 70.5468 14.4874 70.4386C14.4468 70.3378 14.387 70.2458 14.3112 70.1677C14.2349 70.0894 14.1426 70.0281 14.0406 69.9879C13.9315 69.945 13.8154 69.9225 13.6981 69.9214C13.5818 69.9199 13.4664 69.9408 13.3581 69.9829C13.2552 70.0206 13.162 70.0803 13.0851 70.1578C13.0075 70.2347 12.946 70.3259 12.9039 70.4263C12.8178 70.6448 12.8178 70.8875 12.9039 71.1061C12.9436 71.2073 13.0035 71.2994 13.0801 71.377C13.1564 71.4553 13.2486 71.5166 13.3506 71.5568C13.4563 71.5996 13.5691 71.6222 13.6832 71.6233H13.6857ZM14.4775 72.5173C14.3938 72.5156 14.3106 72.5049 14.2293 72.4853C14.1418 72.4659 14.058 72.4326 13.9811 72.3868C13.8918 72.3373 13.8085 72.2778 13.7329 72.2095C13.6369 72.1242 13.5458 72.0337 13.4599 71.9385L13.9414 71.8179C13.9944 71.8936 14.056 71.963 14.125 72.0247C14.1756 72.0714 14.2334 72.1097 14.2963 72.138C14.351 72.1622 14.4101 72.1748 14.47 72.175C14.5498 72.1748 14.6285 72.1576 14.7009 72.1244C14.7733 72.0913 14.8376 72.043 14.8895 71.9829L15.098 72.2292C15.0222 72.32 14.9269 72.393 14.8192 72.4429C14.7114 72.4927 14.5939 72.5181 14.475 72.5173H14.4775Z" fill="#232323"/>
<path d="M16.5226 72.037C16.3796 72.0441 16.2367 72.0225 16.1023 71.9734C15.968 71.9243 15.845 71.8487 15.7408 71.7513C15.6406 71.6411 15.5643 71.5116 15.5165 71.371C15.4687 71.2304 15.4504 71.0815 15.4628 70.9336V69.5691H15.9146V70.9163C15.8957 71.1112 15.9525 71.3059 16.0734 71.4607C16.1332 71.5194 16.2047 71.5651 16.2834 71.5948C16.362 71.6245 16.4461 71.6375 16.5301 71.6331C16.6136 71.639 16.6975 71.6273 16.7762 71.5989C16.8549 71.5704 16.9266 71.5259 16.9868 71.468C17.1073 71.3139 17.1657 71.1207 17.1506 70.9262V69.5789H17.5973V70.9434C17.6062 71.0905 17.585 71.2379 17.5351 71.3767C17.4852 71.5155 17.4076 71.6429 17.307 71.7513C17.2025 71.849 17.0791 71.9248 16.9443 71.9739C16.8095 72.023 16.666 72.0445 16.5226 72.037Z" fill="#232323"/>
<path d="M18.677 71.6404H20.0545V72.0173L18.2253 72.0049L18.2427 69.5863L20.0222 69.5986V69.9755H18.6944L18.677 71.6404ZM18.6522 70.6035H19.8634V70.973H18.6497L18.6522 70.6035Z" fill="#232323"/>
<path d="M21.3129 72.0715C21.1267 72.0708 20.9417 72.0417 20.7644 71.9853C20.6141 71.9428 20.474 71.8708 20.3524 71.7735L20.5112 71.4262C20.7439 71.5982 21.0253 71.693 21.3154 71.6972C21.4202 71.7025 21.5251 71.69 21.6256 71.6602C21.6934 71.6401 21.7538 71.6007 21.7994 71.5469C21.8369 71.502 21.8571 71.4452 21.8564 71.3868C21.858 71.3532 21.8516 71.3196 21.8379 71.2889C21.8241 71.2581 21.8032 71.2309 21.777 71.2095C21.7168 71.1594 21.6466 71.1225 21.571 71.1011C21.4866 71.074 21.3923 71.0469 21.2905 71.0248C21.1888 71.0026 21.0845 70.9731 20.9803 70.941C20.8823 70.911 20.7882 70.8697 20.6998 70.8179C20.6162 70.7686 20.5456 70.7002 20.4938 70.6184C20.4377 70.5211 20.4101 70.4102 20.4144 70.2982C20.4151 70.1704 20.453 70.0455 20.5236 69.9386C20.6046 69.8225 20.7175 69.7319 20.8488 69.6775C21.0235 69.6075 21.2115 69.5756 21.3998 69.5839C21.5466 69.5839 21.6927 69.6038 21.8341 69.6431C21.9678 69.6758 22.0952 69.7299 22.2114 69.8031L22.0649 70.1529C21.96 70.0881 21.8464 70.0383 21.7274 70.0051C21.6191 69.9748 21.5073 69.9583 21.3948 69.9558C21.2912 69.9523 21.1878 69.9673 21.0895 70.0002C21.0224 70.0217 20.963 70.0618 20.9183 70.1159C20.882 70.1633 20.8627 70.2214 20.8636 70.281C20.8618 70.3148 20.8677 70.3486 20.8811 70.3797C20.8944 70.4109 20.9148 70.4386 20.9406 70.4608C21 70.51 21.0694 70.5462 21.1441 70.5667C21.2285 70.5938 21.3228 70.6184 21.4271 70.643C21.5313 70.6677 21.6355 70.6972 21.7398 70.7268C21.8379 70.7554 21.9321 70.7959 22.0203 70.8474C22.1042 70.8945 22.1743 70.9624 22.2238 71.0445C22.2786 71.1404 22.3052 71.2496 22.3007 71.3597C22.2997 71.4867 22.2618 71.6107 22.1915 71.7169C22.1098 71.8333 21.9961 71.9239 21.8639 71.9779C21.6889 72.0472 21.5011 72.079 21.3129 72.0715Z" fill="#232323"/>
<path d="M23.2067 72.0494L23.2215 70.0125H22.4124V69.6332L24.4824 69.648V70.0273H23.6733L23.6584 72.0666L23.2067 72.0494Z" fill="#232323"/>
<path d="M26.2223 72.0715H25.7706L25.7879 69.6528H27.5675V70.0297H26.2397L26.2223 72.0715ZM26.1925 70.7661H27.4087V71.1479H26.1925V70.7661Z" fill="#232323"/>
<path d="M29.1014 72.1282C28.9222 72.1281 28.7445 72.0947 28.5777 72.0297C28.4223 71.9705 28.2805 71.8808 28.1607 71.7661C28.0437 71.6536 27.9508 71.5187 27.8877 71.3696C27.7616 71.0531 27.7616 70.7009 27.8877 70.3844C27.9527 70.2365 28.0472 70.1033 28.1657 69.9928C28.2881 69.8802 28.4314 69.7924 28.5876 69.7342C28.9243 69.6078 29.2959 69.6078 29.6326 69.7342C29.7868 69.7942 29.9276 69.8838 30.047 69.9977C30.1641 70.1102 30.257 70.2451 30.3201 70.3943C30.3847 70.5504 30.4168 70.718 30.4144 70.8868C30.4141 71.0562 30.3795 71.2237 30.3126 71.3794C30.2489 71.528 30.1542 71.6615 30.0346 71.7711C29.9126 71.8799 29.77 71.9636 29.6152 72.0174C29.4524 72.0857 29.2781 72.1233 29.1014 72.1282ZM29.1014 71.7341C29.2183 71.7354 29.3344 71.7153 29.4439 71.675C29.5461 71.6348 29.6389 71.5745 29.7169 71.4977C29.7942 71.4206 29.8558 71.3295 29.8981 71.2292C29.9417 71.1211 29.9645 71.0058 29.9651 70.8893C29.967 70.7731 29.946 70.6576 29.9031 70.5494C29.8626 70.4481 29.8018 70.3559 29.7244 70.2785C29.6487 70.1995 29.5563 70.1381 29.4539 70.0987C29.3456 70.0559 29.2303 70.0333 29.1138 70.0322C28.9975 70.0308 28.8821 70.0517 28.7738 70.0938C28.6716 70.1328 28.5787 70.1923 28.5008 70.2686C28.4232 70.346 28.361 70.4371 28.3171 70.5371C28.2739 70.6454 28.2512 70.7606 28.2501 70.877C28.2484 70.9932 28.2694 71.1087 28.3121 71.2169C28.3532 71.3181 28.4141 71.4102 28.4912 71.488C28.5683 71.5658 28.6601 71.6276 28.7614 71.6701C28.8698 71.7118 28.9851 71.7335 29.1014 71.7341Z" fill="#232323"/>
<path d="M30.8934 72.106L30.9108 69.6873H31.9036C32.0936 69.6831 32.2823 69.7192 32.4571 69.7933C32.6027 69.8564 32.7262 69.961 32.812 70.0937C32.8979 70.2319 32.941 70.392 32.9361 70.5543C32.9385 70.7162 32.8937 70.8753 32.807 71.0124C32.718 71.1419 32.593 71.2429 32.4472 71.3031C32.2706 71.3732 32.0814 71.4068 31.8912 71.4016H31.1466L31.3501 71.1996V72.1084L30.8934 72.106ZM31.3526 71.2489L31.1516 71.0321H31.8962C32.0567 71.0455 32.2168 71.0018 32.3479 70.909C32.3987 70.8651 32.4389 70.8104 32.4655 70.749C32.4922 70.6876 32.5045 70.6211 32.5018 70.5543C32.5059 70.4875 32.4946 70.4206 32.4688 70.3587C32.443 70.2968 32.4034 70.2416 32.3528 70.1972C32.2215 70.1045 32.062 70.0593 31.9011 70.0691H31.1714L31.3749 69.8499L31.3526 71.2489ZM32.4869 72.1183L31.8788 71.2341H32.3628L32.9758 72.1158L32.4869 72.1183Z" fill="#232323"/>
<path d="M35.4478 72.1651C35.3044 72.1726 35.161 72.1511 35.0262 72.102C34.8914 72.0529 34.768 71.9771 34.6635 71.8794C34.5648 71.7697 34.4893 71.6415 34.4415 71.5023C34.3937 71.3631 34.3747 71.2157 34.3855 71.0691V69.7046H34.8397V71.0518C34.8202 71.2464 34.8761 71.4411 34.9961 71.5962C35.1235 71.7049 35.286 71.7646 35.454 71.7646C35.6221 71.7646 35.7845 71.7049 35.9119 71.5962C36.0325 71.442 36.0908 71.2488 36.0758 71.0543V69.707H36.52V71.0715C36.5289 71.2185 36.508 71.3656 36.4585 71.5044C36.4091 71.6432 36.3321 71.7707 36.2321 71.8794C36.1276 71.9771 36.0043 72.0529 35.8695 72.102C35.7347 72.1511 35.5912 72.1726 35.4478 72.1651Z" fill="#232323"/>
<path d="M37.1481 72.1503L37.1654 69.7317H37.5377L39.0518 71.606H38.8681L38.883 69.744H39.3322L39.3124 72.1651H38.9401L37.4261 70.2932H37.6097L37.5973 72.1577L37.1481 72.1503Z" fill="#232323"/>
<path d="M39.9601 72.1651L39.9775 69.7465H40.4317L40.4143 72.1651H39.9601Z" fill="#232323"/>
<path d="M41.5734 72.1823L41.5883 70.143H40.7816V69.7637L42.8491 69.7784V70.1577H42.0425L42.0276 72.1946L41.5734 72.1823Z" fill="#232323"/>
<path d="M43.7402 72.1971V71.2415L43.8395 71.5174L42.7921 69.7711H43.2761L44.115 71.1775H43.8445L44.7107 69.7834H45.1723L44.1001 71.5075L44.2069 71.2317V72.1898L43.7402 72.1971Z" fill="#232323"/>
<path d="M13.2291 26.6198L4.8697 34.7919C4.28341 35.3647 3.81779 36.0476 3.49991 36.8006C3.18204 37.5537 3.01827 38.362 3.01813 39.1785V49.3259C3.01813 50.3057 3.41037 51.2454 4.10857 51.9383C4.80676 52.6311 5.75372 53.0204 6.74112 53.0204H7.19781C8.18521 53.0204 9.13216 52.6311 9.83036 51.9383C10.5286 51.2454 10.9208 50.3057 10.9208 49.3259V39.9001C10.9208 39.0509 11.2607 38.2365 11.8658 37.6361C12.471 37.0356 13.2916 36.6983 14.1474 36.6983C15.0505 36.6983 15.9167 37.0543 16.5553 37.688C17.1939 38.3217 17.5527 39.1812 17.5527 40.0775V49.3481C17.5527 50.3279 17.9449 51.2676 18.6431 51.9605C19.3413 52.6533 20.2883 53.0425 21.2757 53.0425C22.0656 53.0425 22.8232 52.7311 23.3817 52.1769C23.9403 51.6226 24.2541 50.8708 24.2541 50.087L24.2169 38.1145C24.2138 36.6534 23.6857 35.2413 22.7277 34.1318C21.0647 32.2033 18.3593 29.0458 16.5227 26.807C16.3268 26.568 16.0829 26.3722 15.8065 26.232C15.5301 26.0918 15.2273 26.0103 14.9175 25.9926C14.6076 25.975 14.2974 26.0217 14.0067 26.1297C13.716 26.2377 13.4511 26.4046 13.2291 26.6198Z" fill="#0E536C"/>
<mask id="mask0_5_67935" style="mask-type:luminance" maskUnits="userSpaceOnUse" x="3" y="25" width="22" height="29">
<path d="M13.2291 26.6198L4.8697 34.7919C4.28341 35.3647 3.81779 36.0476 3.49991 36.8006C3.18204 37.5537 3.01827 38.362 3.01813 39.1785V49.3259C3.01813 50.3057 3.41037 51.2454 4.10857 51.9383C4.80676 52.6311 5.75372 53.0204 6.74112 53.0204H7.19781C8.18521 53.0204 9.13216 52.6311 9.83036 51.9383C10.5286 51.2454 10.9208 50.3057 10.9208 49.3259V39.9001C10.9208 39.0509 11.2607 38.2365 11.8658 37.6361C12.471 37.0356 13.2916 36.6983 14.1474 36.6983C15.0505 36.6983 15.9167 37.0543 16.5553 37.688C17.1939 38.3217 17.5527 39.1812 17.5527 40.0775V49.3481C17.5527 50.3279 17.9449 51.2676 18.6431 51.9605C19.3413 52.6533 20.2883 53.0425 21.2757 53.0425C22.0656 53.0425 22.8232 52.7311 23.3817 52.1769C23.9403 51.6226 24.2541 50.8708 24.2541 50.087L24.2169 38.1145C24.2138 36.6534 23.6857 35.2413 22.7277 34.1318C21.0647 32.2033 18.3593 29.0458 16.5227 26.807C16.3268 26.568 16.0829 26.3722 15.8065 26.232C15.5301 26.0918 15.2273 26.0103 14.9175 25.9926C14.6076 25.975 14.2974 26.0217 14.0067 26.1297C13.716 26.2377 13.4511 26.4046 13.2291 26.6198Z" fill="white"/>
</mask>
<g mask="url(#mask0_5_67935)">
<path d="M7.92255 54.7272C15.3206 54.7272 21.3179 48.7758 21.3179 41.4345C21.3179 34.0932 15.3206 28.1418 7.92255 28.1418C0.524515 28.1418 -5.47278 34.0932 -5.47278 41.4345C-5.47278 48.7758 0.524515 54.7272 7.92255 54.7272Z" fill="#9FC53D"/>
</g>
<path d="M36.8254 26.6198L45.1872 34.7919C45.7731 35.3649 46.2382 36.0479 46.5557 36.8009C46.8731 37.554 47.0365 38.3622 47.0363 39.1785V49.3259C47.0363 50.3057 46.6441 51.2454 45.9459 51.9383C45.2477 52.6311 44.3007 53.0204 43.3133 53.0204H42.8517C41.8643 53.0204 40.9173 52.6311 40.2191 51.9383C39.5209 51.2454 39.1287 50.3057 39.1287 49.3259V39.9001C39.1287 39.0509 38.7887 38.2365 38.1836 37.6361C37.5785 37.0356 36.7578 36.6983 35.9021 36.6983C34.999 36.6983 34.1328 37.0543 33.4942 37.688C32.8556 38.3217 32.4968 39.1812 32.4968 40.0774V49.3481C32.4968 50.3279 32.1046 51.2676 31.4064 51.9605C30.7082 52.6533 29.7612 53.0425 28.7738 53.0425C27.9839 53.0425 27.2263 52.7311 26.6678 52.1769C26.1092 51.6226 25.7954 50.8708 25.7954 50.087L25.8326 38.1145C25.8372 36.6537 26.3651 35.242 27.3218 34.1318C28.9873 32.2033 31.6901 29.0458 33.5268 26.807C33.7227 26.5672 33.9669 26.3707 34.2437 26.23C34.5205 26.0893 34.8239 26.0076 35.1344 25.9899C35.4449 25.9723 35.7557 26.0192 36.0469 26.1277C36.3381 26.2362 36.6033 26.4038 36.8254 26.6198Z" fill="#7DAF42"/>
<mask id="mask1_5_67935" style="mask-type:luminance" maskUnits="userSpaceOnUse" x="25" y="25" width="23" height="29">
<path d="M36.8253 26.6198L45.1872 34.7919C45.773 35.3649 46.2382 36.0479 46.5556 36.8009C46.8731 37.554 47.0364 38.3622 47.0363 39.1785V49.3259C47.0363 50.3057 46.644 51.2454 45.9458 51.9383C45.2476 52.6311 44.3007 53.0204 43.3133 53.0204H42.8516C41.8642 53.0204 40.9173 52.6311 40.2191 51.9383C39.5209 51.2454 39.1286 50.3057 39.1286 49.3259V39.9001C39.1286 39.0509 38.7887 38.2365 38.1836 37.6361C37.5785 37.0356 36.7578 36.6983 35.902 36.6983C34.9989 36.6983 34.1327 37.0543 33.4941 37.688C32.8555 38.3217 32.4967 39.1812 32.4967 40.0774V49.3481C32.4967 50.3279 32.1045 51.2676 31.4063 51.9605C30.7081 52.6533 29.7611 53.0425 28.7737 53.0425C27.9838 53.0425 27.2263 52.7311 26.6677 52.1769C26.1091 51.6226 25.7953 50.8708 25.7953 50.087L25.8326 38.1145C25.8372 36.6537 26.365 35.242 27.3218 34.1318C28.9872 32.2033 31.6901 29.0458 33.5268 26.807C33.7226 26.5672 33.9668 26.3707 34.2436 26.23C34.5205 26.0893 34.8238 26.0076 35.1344 25.9899C35.4449 25.9723 35.7557 26.0192 36.0469 26.1277C36.338 26.2362 36.6032 26.4038 36.8253 26.6198Z" fill="white"/>
</mask>
<g mask="url(#mask1_5_67935)">
<path d="M42.1318 54.7272C49.5299 54.7272 55.5272 48.7758 55.5272 41.4345C55.5272 34.0932 49.5299 28.1418 42.1318 28.1418C34.7338 28.1418 28.7365 34.0932 28.7365 41.4345C28.7365 48.7758 34.7338 54.7272 42.1318 54.7272Z" fill="#9FC53D"/>
</g>
<path d="M22.1727 16.3731L18.1449 20.37C16.6182 21.885 16.6182 24.3411 18.1449 25.856L22.1727 29.853C23.6993 31.3679 26.1744 31.3679 27.701 29.853L31.7288 25.856C33.2554 24.3411 33.2554 21.885 31.7288 20.37L27.701 16.3731C26.1744 14.8582 23.6993 14.8582 22.1727 16.3731Z" fill="#10969F"/>
<mask id="mask2_5_67935" style="mask-type:luminance" maskUnits="userSpaceOnUse" x="16" y="15" width="17" height="16">
<path d="M22.1727 16.3705L18.1449 20.3675C16.6182 21.8824 16.6182 24.3386 18.1449 25.8535L22.1727 29.8504C23.6993 31.3653 26.1744 31.3653 27.701 29.8504L31.7288 25.8535C33.2554 24.3386 33.2554 21.8824 31.7288 20.3675L27.701 16.3705C26.1744 14.8556 23.6993 14.8556 22.1727 16.3705Z" fill="white"/>
</mask>
<g mask="url(#mask2_5_67935)">
<path d="M29.913 28.371C35.5894 28.371 40.191 23.8047 40.191 18.1718C40.191 12.539 35.5894 7.97266 29.913 7.97266C24.2367 7.97266 19.6351 12.539 19.6351 18.1718C19.6351 23.8047 24.2367 28.371 29.913 28.371Z" fill="#12AFB8"/>
</g>
<path d="M25.2047 11.8765C28.5096 11.8765 31.1888 9.21782 31.1888 5.93823C31.1888 2.65863 28.5096 0 25.2047 0C21.8997 0 19.2206 2.65863 19.2206 5.93823C19.2206 9.21782 21.8997 11.8765 25.2047 11.8765Z" fill="#7CAD42"/>
<mask id="mask3_5_67935" style="mask-type:luminance" maskUnits="userSpaceOnUse" x="19" y="0" width="13" height="12">
<path d="M25.2047 11.8765C28.5096 11.8765 31.1888 9.21782 31.1888 5.93823C31.1888 2.65863 28.5096 0 25.2047 0C21.8997 0 19.2206 2.65863 19.2206 5.93823C19.2206 9.21782 21.8997 11.8765 25.2047 11.8765Z" fill="white"/>
</mask>
<g mask="url(#mask3_5_67935)">
<path d="M30.4615 13.3592C34.5917 13.3592 37.9398 10.0367 37.9398 5.93827C37.9398 1.8398 34.5917 -1.48267 30.4615 -1.48267C26.3314 -1.48267 22.9833 1.8398 22.9833 5.93827C22.9833 10.0367 26.3314 13.3592 30.4615 13.3592Z" fill="#9FC43C"/>
</g>
<path d="M43.2141 25.3243C46.519 25.3243 49.1982 22.6657 49.1982 19.3861C49.1982 16.1065 46.519 13.4479 43.2141 13.4479C39.9091 13.4479 37.23 16.1065 37.23 19.3861C37.23 22.6657 39.9091 25.3243 43.2141 25.3243Z" fill="#9FC43C"/>
<mask id="mask4_5_67935" style="mask-type:luminance" maskUnits="userSpaceOnUse" x="37" y="13" width="13" height="13">
<path d="M43.2141 25.3218C46.519 25.3218 49.1982 22.6631 49.1982 19.3835C49.1982 16.1039 46.519 13.4453 43.2141 13.4453C39.9091 13.4453 37.23 16.1039 37.23 19.3835C37.23 22.6631 39.9091 25.3218 43.2141 25.3218Z" fill="white"/>
</mask>
<g mask="url(#mask4_5_67935)">
<path d="M35.6812 28.4251C39.8113 28.4251 43.1594 25.1027 43.1594 21.0042C43.1594 16.9057 39.8113 13.5833 35.6812 13.5833C31.5511 13.5833 28.2029 16.9057 28.2029 21.0042C28.2029 25.1027 31.5511 28.4251 35.6812 28.4251Z" fill="#7CAD42"/>
</g>
<path d="M5.98409 25.3243C9.28901 25.3243 11.9682 22.6657 11.9682 19.3861C11.9682 16.1065 9.28901 13.4479 5.98409 13.4479C2.67917 13.4479 0 16.1065 0 19.3861C0 22.6657 2.67917 25.3243 5.98409 25.3243Z" fill="#19B0BB"/>
<mask id="mask5_5_67935" style="mask-type:luminance" maskUnits="userSpaceOnUse" x="0" y="13" width="12" height="13">
<path d="M5.98409 25.3218C9.28901 25.3218 11.9682 22.6631 11.9682 19.3835C11.9682 16.1039 9.28901 13.4453 5.98409 13.4453C2.67917 13.4453 0 16.1039 0 19.3835C0 22.6631 2.67917 25.3218 5.98409 25.3218Z" fill="white"/>
</mask>
<g mask="url(#mask5_5_67935)">
<path d="M13.5144 28.4251C17.6446 28.4251 20.9927 25.1027 20.9927 21.0042C20.9927 16.9057 17.6446 13.5833 13.5144 13.5833C9.38432 13.5833 6.03619 16.9057 6.03619 21.0042C6.03619 25.1027 9.38432 28.4251 13.5144 28.4251Z" fill="#10969F"/>
</g>
</svg>
