<svg width="141" height="52" viewBox="0 0 141 52" fill="none" xmlns="http://www.w3.org/2000/svg">
<path d="M18.341 26.0926L10.5427 33.796C9.99578 34.3359 9.56141 34.9796 9.26488 35.6895C8.96834 36.3993 8.81556 37.1613 8.81543 37.9309V47.4962C8.81543 48.4199 9.18134 49.3057 9.83267 49.9588C10.484 50.6119 11.3674 50.9788 12.2885 50.9788H12.7146C13.6357 50.9788 14.5191 50.6119 15.1704 49.9588C15.8217 49.3057 16.1876 48.4199 16.1876 47.4962V38.6112C16.1876 37.8107 16.5048 37.043 17.0693 36.477C17.6337 35.9109 18.3994 35.593 19.1977 35.593C20.0402 35.593 20.8482 35.9286 21.4439 36.5259C22.0397 37.1233 22.3744 37.9335 22.3744 38.7783V47.5171C22.3744 48.4408 22.7403 49.3266 23.3916 49.9797C24.043 50.6328 24.9263 50.9997 25.8475 50.9997C26.5844 50.9997 27.2911 50.7061 27.8121 50.1837C28.3332 49.6612 28.6259 48.9525 28.6259 48.2136L28.5912 36.9279C28.5883 35.5507 28.0958 34.2196 27.202 33.1738C25.6507 31.3559 23.1269 28.3795 21.4135 26.2691C21.2308 26.0438 21.0032 25.8592 20.7454 25.7271C20.4876 25.5949 20.2051 25.5181 19.916 25.5015C19.6269 25.4849 19.3376 25.5289 19.0664 25.6306C18.7952 25.7324 18.5481 25.8898 18.341 26.0926Z" fill="#0E536C"/>
<mask id="mask0_378_35735" style="mask-type:luminance" maskUnits="userSpaceOnUse" x="8" y="25" width="21" height="26">
<path d="M18.341 26.0926L10.5427 33.796C9.99578 34.3359 9.56141 34.9796 9.26488 35.6895C8.96834 36.3993 8.81556 37.1613 8.81543 37.9309V47.4962C8.81543 48.4199 9.18134 49.3057 9.83267 49.9588C10.484 50.6119 11.3674 50.9788 12.2885 50.9788H12.7146C13.6357 50.9788 14.5191 50.6119 15.1704 49.9588C15.8217 49.3057 16.1876 48.4199 16.1876 47.4962V38.6112C16.1876 37.8107 16.5048 37.043 17.0693 36.477C17.6337 35.9109 18.3994 35.593 19.1977 35.593C20.0402 35.593 20.8482 35.9286 21.4439 36.5259C22.0397 37.1233 22.3744 37.9335 22.3744 38.7783V47.5171C22.3744 48.4408 22.7403 49.3266 23.3916 49.9797C24.043 50.6328 24.9263 50.9997 25.8475 50.9997C26.5844 50.9997 27.2911 50.7061 27.8121 50.1837C28.3332 49.6612 28.6259 48.9525 28.6259 48.2136L28.5912 36.9279C28.5883 35.5507 28.0958 34.2196 27.202 33.1738C25.6507 31.3559 23.1269 28.3795 21.4135 26.2691C21.2308 26.0438 21.0032 25.8592 20.7454 25.7271C20.4876 25.5949 20.2051 25.5181 19.916 25.5015C19.6269 25.4849 19.3376 25.5289 19.0664 25.6306C18.7952 25.7324 18.5481 25.8898 18.341 26.0926Z" fill="white"/>
</mask>
<g mask="url(#mask0_378_35735)">
<path d="M13.3906 52.5876C20.292 52.5876 25.8868 46.9777 25.8868 40.0575C25.8868 33.1373 20.292 27.5273 13.3906 27.5273C6.48914 27.5273 0.894409 33.1373 0.894409 40.0575C0.894409 46.9777 6.48914 52.5876 13.3906 52.5876Z" fill="#0C6A8A"/>
</g>
<path d="M40.3535 26.0927L48.154 33.7961C48.7005 34.3362 49.1345 34.98 49.4306 35.6898C49.7267 36.3997 49.8792 37.1615 49.879 37.931V47.4963C49.879 48.42 49.5131 49.3058 48.8617 49.9589C48.2104 50.612 47.327 50.9789 46.4059 50.9789H45.9752C45.0541 50.9789 44.1707 50.612 43.5194 49.9589C42.8681 49.3058 42.5021 48.42 42.5021 47.4963V38.6112C42.5021 37.8108 42.185 37.0431 41.6205 36.4771C41.056 35.911 40.2904 35.5931 39.4921 35.5931C38.6496 35.5931 37.8416 35.9286 37.2458 36.526C36.6501 37.1234 36.3154 37.9336 36.3154 38.7784V47.5172C36.3154 48.4409 35.9495 49.3266 35.2982 49.9797C34.6468 50.6328 33.7634 50.9998 32.8423 50.9998C32.1054 50.9998 31.3987 50.7062 30.8776 50.1838C30.3566 49.6613 30.0638 48.9526 30.0638 48.2137L30.0986 36.928C30.1029 35.551 30.5953 34.2204 31.4878 33.1739C33.0414 31.356 35.5629 28.3796 37.2763 26.2692C37.459 26.0432 37.6868 25.8579 37.9451 25.7253C38.2033 25.5927 38.4863 25.5156 38.776 25.499C39.0657 25.4824 39.3556 25.5266 39.6272 25.6289C39.8989 25.7311 40.1462 25.8891 40.3535 26.0927Z" fill="#7DAF42"/>
<mask id="mask1_378_35735" style="mask-type:luminance" maskUnits="userSpaceOnUse" x="30" y="25" width="20" height="26">
<path d="M40.3535 26.0927L48.154 33.7961C48.7005 34.3362 49.1345 34.98 49.4306 35.6898C49.7267 36.3997 49.8792 37.1615 49.879 37.931V47.4963C49.879 48.42 49.5131 49.3058 48.8617 49.9589C48.2104 50.612 47.327 50.9789 46.4059 50.9789H45.9752C45.0541 50.9789 44.1707 50.612 43.5194 49.9589C42.8681 49.3058 42.5021 48.42 42.5021 47.4963V38.6112C42.5021 37.8108 42.185 37.0431 41.6205 36.4771C41.056 35.911 40.2904 35.5931 39.4921 35.5931C38.6496 35.5931 37.8416 35.9286 37.2458 36.526C36.6501 37.1234 36.3154 37.9336 36.3154 38.7784V47.5172C36.3154 48.4409 35.9495 49.3266 35.2982 49.9797C34.6468 50.6328 33.7634 50.9998 32.8423 50.9998C32.1054 50.9998 31.3987 50.7062 30.8776 50.1838C30.3566 49.6613 30.0638 48.9526 30.0638 48.2137L30.0986 36.928C30.1029 35.551 30.5953 34.2204 31.4878 33.1739C33.0414 31.356 35.5629 28.3796 37.2763 26.2692C37.459 26.0432 37.6868 25.8579 37.9451 25.7253C38.2033 25.5927 38.4863 25.5156 38.776 25.499C39.0657 25.4824 39.3556 25.5266 39.6272 25.6289C39.8989 25.7311 40.1462 25.8891 40.3535 26.0927Z" fill="white"/>
</mask>
<g mask="url(#mask1_378_35735)">
<path d="M45.3038 52.5876C52.2052 52.5876 57.8 46.9777 57.8 40.0575C57.8 33.1373 52.2052 27.5273 45.3038 27.5273C38.4023 27.5273 32.8076 33.1373 32.8076 40.0575C32.8076 46.9777 38.4023 52.5876 45.3038 52.5876Z" fill="#9FC53D"/>
</g>
<path d="M26.6844 16.4338L22.9269 20.2015C21.5028 21.6295 21.5028 23.9447 22.9269 25.3728L26.6843 29.1404C28.1085 30.5684 30.4175 30.5684 31.8416 29.1404L35.5991 25.3728C37.0232 23.9447 37.0232 21.6295 35.5991 20.2015L31.8416 16.4338C30.4175 15.0058 28.1085 15.0058 26.6844 16.4338Z" fill="#10969F"/>
<mask id="mask2_378_35735" style="mask-type:luminance" maskUnits="userSpaceOnUse" x="21" y="15" width="16" height="16">
<path d="M26.6844 16.4311L22.9269 20.1988C21.5028 21.6268 21.5028 23.9421 22.9269 25.3701L26.6843 29.1377C28.1085 30.5657 30.4175 30.5657 31.8416 29.1377L35.5991 25.3701C37.0232 23.9421 37.0232 21.6268 35.5991 20.1988L31.8416 16.4311C30.4175 15.0031 28.1085 15.0031 26.6844 16.4311Z" fill="white"/>
</mask>
<g mask="url(#mask2_378_35735)">
<path d="M33.9051 27.7433C39.2004 27.7433 43.4931 23.439 43.4931 18.1292C43.4931 12.8195 39.2004 8.51514 33.9051 8.51514C28.6097 8.51514 24.317 12.8195 24.317 18.1292C24.317 23.439 28.6097 27.7433 33.9051 27.7433Z" fill="#12AFB8"/>
</g>
<path d="M29.5128 12.1952C32.5959 12.1952 35.0953 9.68904 35.0953 6.59758C35.0953 3.50612 32.5959 1 29.5128 1C26.4298 1 23.9304 3.50612 23.9304 6.59758C23.9304 9.68904 26.4298 12.1952 29.5128 12.1952Z" fill="#7CAD42"/>
<mask id="mask3_378_35735" style="mask-type:luminance" maskUnits="userSpaceOnUse" x="23" y="1" width="13" height="12">
<path d="M29.5128 12.1952C32.5959 12.1952 35.0953 9.68905 35.0953 6.59759C35.0953 3.50612 32.5959 1 29.5128 1C26.4298 1 23.9304 3.50612 23.9304 6.59759C23.9304 9.68905 26.4298 12.1952 29.5128 12.1952Z" fill="white"/>
</mask>
<g mask="url(#mask3_378_35735)">
<path d="M34.4168 13.5928C38.2697 13.5928 41.3931 10.4609 41.3931 6.59753C41.3931 2.73417 38.2697 -0.397705 34.4168 -0.397705C30.5639 -0.397705 27.4406 2.73417 27.4406 6.59753C27.4406 10.4609 30.5639 13.5928 34.4168 13.5928Z" fill="#9FC43C"/>
</g>
<path d="M46.3134 24.8717C49.3965 24.8717 51.8958 22.3656 51.8958 19.2741C51.8958 16.1826 49.3965 13.6765 46.3134 13.6765C43.2303 13.6765 40.731 16.1826 40.731 19.2741C40.731 22.3656 43.2303 24.8717 46.3134 24.8717Z" fill="#9FC43C"/>
<mask id="mask4_378_35735" style="mask-type:luminance" maskUnits="userSpaceOnUse" x="40" y="13" width="12" height="12">
<path d="M46.3134 24.869C49.3965 24.869 51.8958 22.3629 51.8958 19.2714C51.8958 16.18 49.3965 13.6738 46.3134 13.6738C43.2303 13.6738 40.731 16.18 40.731 19.2714C40.731 22.3629 43.2303 24.869 46.3134 24.869Z" fill="white"/>
</mask>
<g mask="url(#mask4_378_35735)">
<path d="M39.2861 27.7944C43.139 27.7944 46.2624 24.6626 46.2624 20.7992C46.2624 16.9358 43.139 13.804 39.2861 13.804C35.4332 13.804 32.3098 16.9358 32.3098 20.7992C32.3098 24.6626 35.4332 27.7944 39.2861 27.7944Z" fill="#7CAD42"/>
</g>
<path d="M11.5824 24.8717C14.6655 24.8717 17.1648 22.3656 17.1648 19.2741C17.1648 16.1826 14.6655 13.6765 11.5824 13.6765C8.49933 13.6765 6 16.1826 6 19.2741C6 22.3656 8.49933 24.8717 11.5824 24.8717Z" fill="#19B0BB"/>
<mask id="mask5_378_35735" style="mask-type:luminance" maskUnits="userSpaceOnUse" x="6" y="13" width="12" height="12">
<path d="M11.5824 24.869C14.6655 24.869 17.1648 22.3629 17.1648 19.2714C17.1648 16.18 14.6655 13.6738 11.5824 13.6738C8.49933 13.6738 6 16.18 6 19.2714C6 22.3629 8.49933 24.869 11.5824 24.869Z" fill="white"/>
</mask>
<g mask="url(#mask5_378_35735)">
<path d="M18.6073 27.7944C22.4602 27.7944 25.5835 24.6626 25.5835 20.7992C25.5835 16.9358 22.4602 13.804 18.6073 13.804C14.7544 13.804 11.631 16.9358 11.631 20.7992C11.631 24.6626 14.7544 27.7944 18.6073 27.7944Z" fill="#10969F"/>
</g>
<path d="M65.1697 25.8001C65.4314 26.0845 65.7144 26.3483 66.0162 26.5892C66.2667 26.7837 66.539 26.9479 66.8275 27.0785C67.0937 27.1989 67.3743 27.2838 67.6623 27.331C67.9724 27.3768 68.2855 27.3992 68.599 27.3981H68.8969C69.0066 27.3981 69.1163 27.3744 69.23 27.3547L69.5514 27.2876C69.6533 27.26 69.7473 27.2284 69.8335 27.1969V29.5446C69.583 29.6094 69.3292 29.6608 69.0732 29.6985C68.6839 29.7552 68.2908 29.7816 67.8974 29.7774C67.3702 29.782 66.8467 29.6884 66.3533 29.5012C65.8689 29.3116 65.4115 29.0582 64.9933 28.7476C64.5418 28.4093 64.1197 28.0331 63.7313 27.623C63.3237 27.189 62.9004 26.726 62.4615 26.2341C61.6701 26.2215 60.8903 26.0414 60.1726 25.7054C59.5029 25.3898 58.9041 24.9401 58.4129 24.3835C57.9148 23.8053 57.5328 23.1353 57.2881 22.4106C57.0199 21.6373 56.8873 20.8228 56.8962 20.0037C56.8962 18.0413 57.4566 16.463 58.5775 15.2688C59.6984 14.0745 61.1982 13.4695 63.0768 13.4537C63.8651 13.4236 64.6506 13.5637 65.3807 13.8645C66.1107 14.1653 66.7684 14.6199 67.3096 15.1977C68.3991 16.3499 68.9426 17.8717 68.94 19.763C68.9759 21.1044 68.6306 22.4282 67.9445 23.5786C67.2975 24.6153 66.3187 25.3989 65.1697 25.8001ZM62.9749 15.8488C62.5293 15.8339 62.0866 15.9263 61.6837 16.1185C61.2808 16.3107 60.9294 16.597 60.6586 16.9536C60.1034 17.8205 59.8081 18.8302 59.8081 19.8617C59.8081 20.8932 60.1034 21.9028 60.6586 22.7697C60.9238 23.1143 61.2662 23.3909 61.6579 23.5767C62.0496 23.7626 62.4794 23.8525 62.9122 23.839C63.3449 23.8573 63.7759 23.7733 64.1706 23.5938C64.5654 23.4142 64.9129 23.1442 65.1853 22.8052C65.7868 21.9669 66.083 20.9454 66.0241 19.913C66.0241 18.6385 65.7575 17.6481 65.2206 16.9339C64.963 16.5827 64.6232 16.3009 64.2314 16.1137C63.8397 15.9265 63.4081 15.8395 62.9749 15.8606V15.8488Z" fill="#0E536C"/>
<path d="M79.0479 26.0422H76.3593V24.6927H76.3162C76.0492 25.1729 75.6595 25.5725 75.1874 25.85C74.7154 26.1275 74.1782 26.2729 73.6316 26.271C71.5988 26.271 70.5824 25.0321 70.5824 22.5541V17.2036H73.2827V22.2937C73.2827 23.5432 73.774 24.1679 74.7564 24.1679C74.9782 24.1779 75.1993 24.1369 75.4031 24.0481C75.6068 23.9592 75.7877 23.8248 75.9321 23.655C76.2401 23.2535 76.392 22.7526 76.3593 22.2463V17.2036H79.0597L79.0479 26.0422Z" fill="#0E536C"/>
<path d="M89.2146 22.3958H83.4886C83.5788 23.6822 84.3822 24.3214 85.899 24.3214C86.795 24.3412 87.6778 24.1015 88.4425 23.6309V25.6038C87.4576 26.0799 86.3714 26.3048 85.2797 26.2588C83.8636 26.2588 82.7636 25.8642 81.9797 25.075C81.1959 24.2859 80.804 23.1824 80.804 21.7645C80.804 20.2967 81.2272 19.134 82.0738 18.2764C82.4802 17.8561 82.9685 17.5249 83.508 17.3036C84.0476 17.0822 84.6267 16.9755 85.2092 16.9901C86.4895 16.9901 87.4797 17.3728 88.1799 18.1383C88.9161 19.0022 89.2924 20.119 89.2303 21.2555L89.2146 22.3958ZM86.7024 20.7228C86.7024 19.4575 86.1942 18.8249 85.1778 18.8249C84.9613 18.8256 84.7477 18.8748 84.5525 18.969C84.3572 19.0632 84.1853 19.2 84.0491 19.3694C83.7235 19.7503 83.5224 20.2228 83.473 20.7228H86.7024Z" fill="#0E536C"/>
<path d="M101.113 20.6683C101.113 24.3853 99.3925 26.2437 95.9514 26.2437C92.6174 26.2437 90.9491 24.4287 90.9465 20.7985V13.6646H93.7253V20.8459C93.7253 22.8477 94.5091 23.8486 96.0768 23.8486C97.6445 23.8486 98.4074 22.8819 98.3656 20.9485V13.6646H101.133L101.113 20.6683Z" fill="#7DAF42"/>
<path d="M112 26.042H109.3V21.1295C109.3 19.759 108.814 19.0737 107.842 19.0737C107.617 19.0657 107.394 19.1108 107.19 19.2053C106.986 19.2999 106.806 19.4413 106.666 19.6182C106.353 20.0076 106.191 20.4986 106.212 20.9993V26.042H103.503V17.2034H106.212V18.6002H106.247C106.523 18.0953 106.932 17.6772 107.429 17.3923C107.927 17.1074 108.493 16.9669 109.065 16.9864C111.009 16.9864 111.981 18.2004 111.981 20.6284L112 26.042Z" fill="#7DAF42"/>
<path d="M115.516 15.8021C115.104 15.8247 114.7 15.683 114.391 15.4076C114.252 15.2805 114.141 15.1251 114.066 14.9516C113.991 14.7781 113.954 14.5906 113.956 14.4014C113.95 14.2123 113.987 14.0244 114.062 13.8511C114.137 13.6778 114.25 13.5234 114.391 13.3992C114.713 13.1483 115.109 13.0122 115.516 13.0122C115.923 13.0122 116.319 13.1483 116.641 13.3992C116.782 13.5234 116.895 13.6778 116.97 13.8511C117.045 14.0244 117.081 14.2123 117.076 14.4014C117.082 14.5928 117.046 14.7831 116.971 14.959C116.895 15.1349 116.783 15.292 116.641 15.4194C116.329 15.6876 115.926 15.8246 115.516 15.8021ZM116.852 26.0612H114.144V17.2226H116.852V26.0612Z" fill="#7DAF42"/>
<path d="M124.44 25.9356C123.87 26.1816 123.25 26.291 122.63 26.2552C120.72 26.2552 119.766 25.2569 119.769 23.2603V19.212H118.342V17.2036H119.769V15.2938L122.469 14.5046V17.1878H124.429V19.1962H122.469V22.7711C122.469 23.6918 122.831 24.1521 123.555 24.1521C123.867 24.1454 124.171 24.0585 124.44 23.8996V25.9356Z" fill="#7DAF42"/>
<path d="M134.324 17.2038L130.758 26.7487C129.901 29.0451 128.609 30.1934 126.882 30.1934C126.333 30.2097 125.786 30.1337 125.263 29.9684V27.7943C125.62 28.0042 126.026 28.1133 126.439 28.11C126.756 28.1259 127.069 28.038 127.332 27.8594C127.595 27.6808 127.793 27.4212 127.897 27.1196L128.359 26.0227L124.793 17.2038H127.795L129.433 22.578C129.545 22.9653 129.625 23.3612 129.672 23.7617H129.707C129.772 23.3606 129.867 22.965 129.99 22.578L131.644 17.1841L134.324 17.2038Z" fill="#7DAF42"/>
<path d="M64.3818 38.0315L64.4054 34.7644H63.1277V34.1528L66.3924 34.1765V34.7881H65.1147L65.0951 38.0315H64.3818Z" fill="#232323"/>
<path d="M67.6276 38.0549H66.9104L66.9418 34.1802H67.6551L67.6276 38.0549ZM69.697 36.4096H67.5923V35.794H69.697V36.4096ZM69.6578 34.192H70.3711L70.3436 38.0668H69.6303L69.6578 34.192Z" fill="#232323"/>
<path d="M72.0876 37.4788H74.2588V38.0825L71.3704 38.0628L71.3978 34.1841L74.2079 34.2078V34.8115H72.1111L72.0876 37.4788ZM72.0484 35.8176H73.961V36.4095H72.0445L72.0484 35.8176Z" fill="#232323"/>
<path d="M78.3737 38.1866C78.0868 38.1878 77.8022 38.1343 77.535 38.0288C77.29 37.9332 77.0663 37.7897 76.8766 37.6066C76.6917 37.4272 76.5462 37.2108 76.4494 36.9713C76.2451 36.4654 76.2451 35.899 76.4494 35.393C76.5506 35.1553 76.7001 34.9416 76.8884 34.7657C77.0818 34.5924 77.3067 34.4584 77.5507 34.3711C78.0823 34.1686 78.6691 34.1686 79.2007 34.3711C79.4532 34.4589 79.6862 34.5957 79.8866 34.7735C80.0727 34.9527 80.2196 35.1691 80.3177 35.4088C80.52 35.9152 80.52 36.4807 80.3177 36.9871C80.2127 37.2345 80.0548 37.4554 79.8552 37.6342C79.6637 37.8081 79.4399 37.9422 79.1968 38.0288C78.9345 38.1323 78.6554 38.1858 78.3737 38.1866ZM78.3737 37.5553C78.5587 37.558 78.7424 37.5245 78.9146 37.4567C79.0764 37.3951 79.2234 37.2996 79.3457 37.1765C79.4678 37.0516 79.5649 36.9043 79.6318 36.7425C79.7036 36.5715 79.7397 36.3875 79.7376 36.2019C79.7406 36.0157 79.7074 35.8307 79.6397 35.6574C79.5756 35.496 79.4811 35.3486 79.3614 35.2234C79.2409 35.098 79.0953 34.9998 78.9342 34.9353C78.7619 34.8667 78.5786 34.8306 78.3933 34.8288C78.2097 34.8265 78.0274 34.86 77.8564 34.9274C77.694 34.9877 77.5468 35.0834 77.4253 35.2076C77.3029 35.3307 77.2057 35.4768 77.1392 35.6377C77.0032 35.9878 77.0032 36.3766 77.1392 36.7267C77.2018 36.8888 77.2965 37.0365 77.4175 37.1607C77.538 37.2861 77.6836 37.3843 77.8446 37.4488C78.0115 37.5174 78.1897 37.5535 78.3698 37.5553H78.3737ZM79.624 38.9876C79.4919 38.9849 79.3605 38.9677 79.2321 38.9363C79.0939 38.9052 78.9616 38.8519 78.8401 38.7785C78.6991 38.6992 78.5676 38.6039 78.4482 38.4944C78.2967 38.3578 78.1528 38.2129 78.0171 38.0604L78.7774 37.867C78.8612 37.9883 78.9585 38.0995 79.0674 38.1985C79.1473 38.2732 79.2386 38.3345 79.3379 38.38C79.4242 38.4188 79.5177 38.4389 79.6122 38.4392C79.7381 38.4389 79.8625 38.4113 79.9768 38.3582C80.0911 38.3051 80.1927 38.2277 80.2746 38.1314L80.6038 38.526C80.4841 38.6716 80.3337 38.7885 80.1636 38.8683C79.9934 38.9482 79.8078 38.9889 79.6201 38.9876H79.624Z" fill="#232323"/>
<path d="M82.8531 38.2198C82.6273 38.2312 82.4015 38.1965 82.1894 38.1179C81.9772 38.0392 81.783 37.9182 81.6185 37.7621C81.4603 37.5855 81.3398 37.3782 81.2643 37.1529C81.1888 36.9275 81.1599 36.689 81.1796 36.4521V34.2661H81.8929V36.4245C81.8631 36.7367 81.9528 37.0486 82.1437 37.2965C82.2381 37.3906 82.351 37.4638 82.4752 37.5114C82.5994 37.559 82.7321 37.5798 82.8648 37.5727C82.9967 37.5821 83.1291 37.5635 83.2534 37.5179C83.3777 37.4724 83.491 37.401 83.586 37.3083C83.7763 37.0613 83.8685 36.7519 83.8446 36.4402V34.2819H84.5501V36.4679C84.564 36.7036 84.5306 36.9396 84.4518 37.162C84.373 37.3844 84.2505 37.5885 84.0915 37.7621C83.9266 37.9187 83.7317 38.04 83.5189 38.1187C83.306 38.1973 83.0795 38.2317 82.8531 38.2198Z" fill="#232323"/>
<path d="M86.2546 37.5842H88.4297V38.1879L85.5413 38.1682L85.5687 34.2935L88.3788 34.3132V34.9169H86.282L86.2546 37.5842ZM86.2154 35.9231H88.128V36.5149H86.2114L86.2154 35.9231Z" fill="#232323"/>
<path d="M90.4174 38.273C90.1234 38.2717 89.8313 38.2251 89.5512 38.1349C89.314 38.0668 89.0927 37.9514 88.9006 37.7955L89.1515 37.2392C89.5189 37.5146 89.9632 37.6665 90.4213 37.6732C90.5868 37.6817 90.7524 37.6617 90.9112 37.614C91.0183 37.5818 91.1137 37.5187 91.1855 37.4325C91.2448 37.3605 91.2768 37.2696 91.2757 37.176C91.2781 37.1221 91.2681 37.0684 91.2463 37.0191C91.2246 36.9698 91.1917 36.9262 91.1503 36.8919C91.0552 36.8117 90.9443 36.7525 90.825 36.7183C90.6917 36.6749 90.5428 36.6315 90.3821 36.596C90.2214 36.5605 90.0568 36.5132 89.8922 36.4619C89.7374 36.4137 89.5888 36.3475 89.4493 36.2646C89.3172 36.1855 89.2057 36.076 89.124 35.945C89.0353 35.7892 88.9919 35.6114 88.9986 35.432C88.9997 35.2273 89.0596 35.0272 89.1711 34.8559C89.299 34.67 89.4772 34.5248 89.6845 34.4377C89.9605 34.3255 90.2572 34.2744 90.5545 34.2877C90.7864 34.2876 91.0172 34.3195 91.2404 34.3824C91.4515 34.4349 91.6526 34.5215 91.8361 34.6389L91.6049 35.1992C91.4392 35.0954 91.2598 35.0157 91.0719 34.9625C90.9008 34.9139 90.7244 34.8874 90.5467 34.8835C90.3831 34.8778 90.2198 34.9019 90.0646 34.9546C89.9587 34.989 89.8648 35.0534 89.7942 35.14C89.7369 35.2159 89.7065 35.309 89.708 35.4044C89.705 35.4586 89.7145 35.5127 89.7355 35.5626C89.7566 35.6125 89.7887 35.6569 89.8295 35.6924C89.9234 35.7714 90.033 35.8293 90.1509 35.8621C90.2841 35.9055 90.4331 35.945 90.5977 35.9844C90.7623 36.0239 90.9269 36.0712 91.0915 36.1186C91.2465 36.1644 91.3952 36.2293 91.5344 36.3119C91.6668 36.3873 91.7776 36.4961 91.8557 36.6276C91.9422 36.7812 91.9843 36.9562 91.9772 37.1326C91.9756 37.3361 91.9157 37.5347 91.8048 37.7048C91.6758 37.8913 91.4962 38.0365 91.2874 38.123C91.0111 38.2339 90.7146 38.285 90.4174 38.273Z" fill="#232323"/>
<path d="M93.4072 38.2385L93.4307 34.9753H92.1531V34.3677L95.4217 34.3913V34.999H94.144L94.1205 38.2661L93.4072 38.2385Z" fill="#232323"/>
<path d="M98.1696 38.2737H97.4563L97.4837 34.3989H100.294V35.0026H98.197L98.1696 38.2737ZM98.1226 36.1824H100.043V36.794H98.1226V36.1824Z" fill="#232323"/>
<path d="M102.715 38.3665C102.432 38.3664 102.152 38.3129 101.889 38.2087C101.643 38.1139 101.419 37.9703 101.23 37.7865C101.045 37.6062 100.899 37.3901 100.799 37.1512C100.6 36.6442 100.6 36.0799 100.799 35.5729C100.902 35.336 101.051 35.1225 101.238 34.9455C101.431 34.7652 101.658 34.6245 101.904 34.5312C102.436 34.3288 103.023 34.3288 103.554 34.5312C103.798 34.6274 104.02 34.7708 104.209 34.9534C104.394 35.1337 104.54 35.3498 104.64 35.5887C104.742 35.8389 104.793 36.1074 104.789 36.3779C104.788 36.6491 104.734 36.9175 104.628 37.167C104.528 37.4051 104.378 37.6189 104.189 37.7944C103.996 37.9687 103.771 38.1028 103.527 38.189C103.27 38.2985 102.995 38.3587 102.715 38.3665ZM102.715 37.7352C102.9 37.7372 103.083 37.7051 103.256 37.6405C103.418 37.5761 103.564 37.4794 103.687 37.3564C103.809 37.233 103.907 37.0869 103.974 36.9263C104.042 36.7531 104.078 36.5684 104.079 36.3818C104.082 36.1956 104.049 36.0106 103.981 35.8373C103.917 35.6749 103.821 35.5273 103.699 35.4032C103.58 35.2767 103.434 35.1783 103.272 35.1152C103.101 35.0466 102.919 35.0105 102.735 35.0087C102.551 35.0063 102.369 35.0398 102.198 35.1073C102.037 35.1698 101.89 35.2652 101.767 35.3875C101.645 35.5114 101.546 35.6573 101.477 35.8176C101.409 35.991 101.373 36.1756 101.371 36.3621C101.368 36.5483 101.402 36.7332 101.469 36.9066C101.534 37.0687 101.63 37.2163 101.752 37.3409C101.874 37.4655 102.019 37.5646 102.179 37.6326C102.35 37.6995 102.532 37.7343 102.715 37.7352Z" fill="#232323"/>
<path d="M105.546 38.3289L105.573 34.4542H107.141C107.441 34.4473 107.739 34.5052 108.015 34.6238C108.245 34.725 108.44 34.8925 108.575 35.1052C108.711 35.3266 108.779 35.5831 108.771 35.8431C108.775 36.1024 108.704 36.3572 108.567 36.577C108.427 36.7844 108.229 36.9462 107.999 37.0426C107.72 37.155 107.421 37.2087 107.121 37.2004H105.945L106.267 36.8769V38.3329L105.546 38.3289ZM106.271 36.9558L105.953 36.6086H107.129C107.382 36.6299 107.635 36.56 107.842 36.4113C107.923 36.341 107.986 36.2534 108.028 36.155C108.07 36.0567 108.09 35.9501 108.085 35.8431C108.092 35.736 108.074 35.6288 108.033 35.5297C107.993 35.4305 107.93 35.3421 107.85 35.2709C107.643 35.1224 107.391 35.05 107.137 35.0657H105.985L106.306 34.7146L106.271 36.9558ZM108.062 38.3486L107.102 36.9321H107.866L108.834 38.3447L108.062 38.3486Z" fill="#232323"/>
<path d="M112.737 38.4228C112.511 38.4347 112.284 38.4003 112.071 38.3217C111.858 38.243 111.664 38.1217 111.499 37.9651C111.343 37.7894 111.223 37.584 111.148 37.3609C111.073 37.1379 111.043 36.9019 111.06 36.6669V34.481H111.777V36.6393C111.746 36.951 111.834 37.2629 112.024 37.5113C112.225 37.6855 112.481 37.7813 112.747 37.7813C113.012 37.7813 113.269 37.6855 113.47 37.5113C113.66 37.2643 113.752 36.9549 113.729 36.6432V34.4849H114.43V36.6709C114.444 36.9062 114.411 37.142 114.333 37.3643C114.255 37.5866 114.133 37.7909 113.975 37.9651C113.811 38.1217 113.616 38.243 113.403 38.3217C113.19 38.4003 112.963 38.4347 112.737 38.4228Z" fill="#232323"/>
<path d="M115.422 38.4026L115.449 34.5278H116.037L118.428 37.5306H118.138L118.161 34.5476H118.871L118.839 38.4263H118.251L115.861 35.4275H116.151L116.131 38.4144L115.422 38.4026Z" fill="#232323"/>
<path d="M119.863 38.426L119.89 34.5513H120.607L120.58 38.426H119.863Z" fill="#232323"/>
<path d="M122.41 38.4534L122.433 35.1863H121.159V34.5786L124.424 34.6023V35.2099H123.15L123.127 38.4731L122.41 38.4534Z" fill="#232323"/>
<path d="M125.831 38.4769V36.946L125.988 37.3879L124.334 34.5903H125.098L126.423 36.8434H125.996L127.364 34.6101H128.093L126.4 37.3721L126.568 36.9302V38.4651L125.831 38.4769Z" fill="#232323"/>
</svg>
