<svg width="20" height="17" viewBox="0 0 20 17" fill="none" xmlns="http://www.w3.org/2000/svg">
<path d="M2.0625 13V0.5H17.375V13" stroke="#141414" stroke-miterlimit="10" stroke-linecap="round" stroke-linejoin="round"/>
<path d="M9.71875 8.3125C10.5817 8.3125 11.2812 7.61294 11.2812 6.75C11.2812 5.88706 10.5817 5.1875 9.71875 5.1875C8.85581 5.1875 8.15625 5.88706 8.15625 6.75C8.15625 7.61294 8.85581 8.3125 9.71875 8.3125Z" stroke="#141414" stroke-miterlimit="10" stroke-linecap="round" stroke-linejoin="round"/>
<path d="M9.71875 3.625V5.1875" stroke="#141414" stroke-miterlimit="10" stroke-linecap="round" stroke-linejoin="round"/>
<path d="M9.71875 8.3125V9.875" stroke="#141414" stroke-miterlimit="10" stroke-linecap="round" stroke-linejoin="round"/>
<path d="M7.01245 8.3125L8.36561 7.53125" stroke="#141414" stroke-miterlimit="10" stroke-linecap="round" stroke-linejoin="round"/>
<path d="M11.0719 5.96875L12.4251 5.1875" stroke="#141414" stroke-miterlimit="10" stroke-linecap="round" stroke-linejoin="round"/>
<path d="M12.4251 8.3125L11.0719 7.53125" stroke="#141414" stroke-miterlimit="10" stroke-linecap="round" stroke-linejoin="round"/>
<path d="M8.36561 5.96875L7.01245 5.1875" stroke="#141414" stroke-miterlimit="10" stroke-linecap="round" stroke-linejoin="round"/>
<path d="M0.5 13V14.5625C0.5 15.4254 1.19957 16.125 2.0625 16.125H17.375C18.2379 16.125 18.9375 15.4254 18.9375 14.5625V13H0.5Z" stroke="#141414" stroke-miterlimit="10" stroke-linecap="round" stroke-linejoin="round"/>
</svg>
