<svg width="16" height="16" viewBox="0 0 16 16" fill="none" xmlns="http://www.w3.org/2000/svg">
<path fill-rule="evenodd" clip-rule="evenodd" d="M10.9573 10.0568L13.584 12.7301C13.7017 12.8573 13.7652 13.0253 13.7611 13.1985C13.7571 13.3717 13.6857 13.5366 13.5622 13.6581C13.4387 13.7796 13.2727 13.8482 13.0995 13.8495C12.9262 13.8507 12.7593 13.7845 12.634 13.6648L10.0087 10.9941C8.9957 11.7572 7.7306 12.1068 6.46952 11.9723C5.20845 11.8377 4.04564 11.2289 3.21655 10.2692C2.38746 9.30945 1.95404 8.07055 2.00406 6.80329C2.05408 5.53604 2.58379 4.33515 3.48595 3.44377C4.3881 2.5524 5.59527 2.03716 6.86303 2.00237C8.13079 1.96759 9.3644 2.41586 10.3141 3.25642C11.2638 4.09699 11.8585 5.26703 11.978 6.52963C12.0974 7.79223 11.7326 9.05304 10.9573 10.0568ZM7 10.6668C7.97246 10.6668 8.9051 10.2805 9.59273 9.59283C10.2804 8.90519 10.6667 7.97256 10.6667 7.0001C10.6667 6.02764 10.2804 5.09501 9.59273 4.40738C8.9051 3.71974 7.97246 3.33343 7 3.33343C6.02754 3.33343 5.09491 3.71974 4.40728 4.40738C3.71965 5.09501 3.33334 6.02764 3.33334 7.0001C3.33334 7.97256 3.71965 8.90519 4.40728 9.59283C5.09491 10.2805 6.02754 10.6668 7 10.6668Z" fill="#141414" fill-opacity="0.8"/>
</svg>
