<svg width="20" height="20" viewBox="0 0 20 20" fill="none" xmlns="http://www.w3.org/2000/svg">
<path d="M13.637 18.0117H3.125C1.83059 18.0117 0.78125 16.9623 0.78125 15.6679V7.8479C0.78125 6.55349 1.83059 5.50415 3.125 5.50415H13.637C14.9314 5.50415 15.9807 6.55349 15.9807 7.8479V15.6679C15.9807 16.9623 14.9314 18.0117 13.637 18.0117Z" stroke="#141414" stroke-miterlimit="10" stroke-linecap="round" stroke-linejoin="round"/>
<path d="M15.9807 8.64331H0.78125V11.7417H15.9807V8.64331Z" stroke="#141414" stroke-miterlimit="10" stroke-linecap="round" stroke-linejoin="round"/>
<path d="M3.70801 14.6572H6.57699" stroke="#141414" stroke-miterlimit="10" stroke-linecap="round" stroke-linejoin="round"/>
<path d="M12.4746 14.6572H13.0539" stroke="#141414" stroke-miterlimit="10" stroke-linecap="round" stroke-linejoin="round"/>
<path d="M9.42114 14.6572H10.0004" stroke="#141414" stroke-miterlimit="10" stroke-linecap="round" stroke-linejoin="round"/>
<path d="M15.9807 14.4961H16.875C18.1694 14.4961 19.2188 13.4468 19.2188 12.1524V12.1458" stroke="#141414" stroke-miterlimit="10" stroke-linecap="round" stroke-linejoin="round"/>
<path d="M19.2187 8.23938V4.33228C19.2187 3.03786 18.1694 1.98853 16.875 1.98853H6.36304C5.06862 1.98853 4.01929 3.03786 4.01929 4.33228V5.28974" stroke="#141414" stroke-miterlimit="10" stroke-linecap="round" stroke-linejoin="round"/>
</svg>
